<?xml version="1.0" encoding="utf-8"?>
<!-- Generator: Adobe Illustrator 24.0.2, SVG Export Plug-In . SVG Version: 6.00 Build 0)  -->
<svg version="1.1" id="Layer_1" xmlns="http://www.w3.org/2000/svg" xmlns:xlink="http://www.w3.org/1999/xlink" x="0px" y="0px"
	 viewBox="0 0 2078.06 1566.04" style="enable-background:new 0 0 2078.06 1566.04;" xml:space="preserve">
<style type="text/css">
	.st0{fill:none;}
	.st1{fill:none;stroke:#000000;stroke-width:2.16;}
	.st2{fill:none;stroke:#33324A;stroke-width:35;stroke-miterlimit:10;}
	.st3{fill:#454966;}
	.st4{fill:#F1ECED;}
	.st5{font-family:'Roboto-Bold';}
	.st6{font-size:8px;}
	.st7{fill:#4B6187;}
	.st8{fill:none;stroke:#F49819;stroke-width:35;stroke-miterlimit:10;}
	.st9{fill:#F5AF3B;}
	.st10{fill:#2E5DA1;}
	.st11{fill:#FFFFFF;}
	.st12{font-family:'Roboto-Black';}
	.st13{font-size:7px;}
	.st14{fill:#5EC1CB;}
	.st15{fill:none;stroke:#8C8699;stroke-linecap:round;stroke-miterlimit:10;stroke-dasharray:5,5;}
	.st16{fill:#454965;}
	.st17{fill:#33324A;}
	.st18{fill:#728FB8;}
	.st19{fill:#FFFFFF;stroke:#CDCBCA;stroke-width:50;stroke-miterlimit:10;}
	.st20{font-size:12px;}
	.st21{fill:#F5AF3A;}
	.st22{fill:#FAD090;}
	.st23{fill:#F49819;}
	.st24{fill:none;stroke:#FAD090;stroke-linecap:round;stroke-miterlimit:10;stroke-dasharray:5,5;}
	.st25{fill:#A8B3C3;}
	.st26{fill:#E73C1E;}
	.st27{fill:#D8D2D2;}
	.st28{fill:#E73C1F;}
	.st29{fill:none;stroke:#33324A;stroke-width:1.08;stroke-linecap:round;stroke-linejoin:round;stroke-miterlimit:10;}
	.st30{fill:#F59C1A;}
	.st31{fill:none;stroke:#34334B;stroke-width:0.35;stroke-linecap:round;stroke-linejoin:round;stroke-miterlimit:10;}
	.st32{fill:#5D9DCE;}
	.st33{fill:#FFFFFF;stroke:#33324A;stroke-width:0.35;stroke-linecap:round;stroke-linejoin:round;stroke-miterlimit:10;}
	.st34{fill:url(#SVGID_1_);}
	.st35{font-family:'RobotoMono-Bold';}
	.st36{font-size:60px;}
	.st37{fill:#A8AFC0;}
	.st38{font-family:'Roboto-Regular';}
	.st39{font-size:17.2189px;}
	.st40{fill:#35344B;}
	.st41{fill:#2B62AC;}
	.st42{fill:#F4991A;}
	.st43{fill:#2B2C3E;}
	.st44{fill:none;stroke:#33324A;stroke-width:0.75;stroke-linecap:round;stroke-linejoin:round;stroke-miterlimit:10;}
	.st45{fill:none;stroke:#A8B3C3;stroke-width:2;stroke-linejoin:round;stroke-miterlimit:10;}
	.st46{font-family:'RobotoMono-Regular';}
	.st47{fill:#1A1414;}
	.st48{fill:none;stroke:#A8B3C3;stroke-width:2.0948;stroke-linejoin:round;stroke-miterlimit:10;}
	.st49{fill:url(#SVGID_2_);}
	.st50{fill:none;stroke:#33324A;stroke-width:1.0275;stroke-linecap:round;stroke-linejoin:round;stroke-miterlimit:10;}
	.st51{fill:none;stroke:#33324A;stroke-width:1.081;stroke-linecap:round;stroke-linejoin:round;stroke-miterlimit:10;}
</style>
<pattern  x="744.33" y="359.2" width="72" height="72" patternUnits="userSpaceOnUse" id="_x31_0_lpi_30_x25_" viewBox="72.25 -72 72 72" style="overflow:visible;">
	<g>
		<rect x="72.25" y="-72" class="st0" width="72" height="72"/>
		<g>
			<line class="st1" x1="144" y1="-3.6" x2="216.5" y2="-3.6"/>
			<line class="st1" x1="144" y1="-18" x2="216.5" y2="-18"/>
			<line class="st1" x1="144" y1="-32.4" x2="216.5" y2="-32.4"/>
			<line class="st1" x1="144" y1="-46.8" x2="216.5" y2="-46.8"/>
			<line class="st1" x1="144" y1="-61.2" x2="216.5" y2="-61.2"/>
			<line class="st1" x1="144" y1="-10.8" x2="216.5" y2="-10.8"/>
			<line class="st1" x1="144" y1="-25.2" x2="216.5" y2="-25.2"/>
			<line class="st1" x1="144" y1="-39.6" x2="216.5" y2="-39.6"/>
			<line class="st1" x1="144" y1="-54" x2="216.5" y2="-54"/>
			<line class="st1" x1="144" y1="-68.4" x2="216.5" y2="-68.4"/>
		</g>
		<g>
			<line class="st1" x1="72" y1="-3.6" x2="144.5" y2="-3.6"/>
			<line class="st1" x1="72" y1="-18" x2="144.5" y2="-18"/>
			<line class="st1" x1="72" y1="-32.4" x2="144.5" y2="-32.4"/>
			<line class="st1" x1="72" y1="-46.8" x2="144.5" y2="-46.8"/>
			<line class="st1" x1="72" y1="-61.2" x2="144.5" y2="-61.2"/>
			<line class="st1" x1="72" y1="-10.8" x2="144.5" y2="-10.8"/>
			<line class="st1" x1="72" y1="-25.2" x2="144.5" y2="-25.2"/>
			<line class="st1" x1="72" y1="-39.6" x2="144.5" y2="-39.6"/>
			<line class="st1" x1="72" y1="-54" x2="144.5" y2="-54"/>
			<line class="st1" x1="72" y1="-68.4" x2="144.5" y2="-68.4"/>
		</g>
		<g>
			<line class="st1" x1="0" y1="-3.6" x2="72.5" y2="-3.6"/>
			<line class="st1" x1="0" y1="-18" x2="72.5" y2="-18"/>
			<line class="st1" x1="0" y1="-32.4" x2="72.5" y2="-32.4"/>
			<line class="st1" x1="0" y1="-46.8" x2="72.5" y2="-46.8"/>
			<line class="st1" x1="0" y1="-61.2" x2="72.5" y2="-61.2"/>
			<line class="st1" x1="0" y1="-10.8" x2="72.5" y2="-10.8"/>
			<line class="st1" x1="0" y1="-25.2" x2="72.5" y2="-25.2"/>
			<line class="st1" x1="0" y1="-39.6" x2="72.5" y2="-39.6"/>
			<line class="st1" x1="0" y1="-54" x2="72.5" y2="-54"/>
			<line class="st1" x1="0" y1="-68.4" x2="72.5" y2="-68.4"/>
		</g>
	</g>
</pattern>
<g>
	<path class="st2" d="M744.67,682.74c0-62.78-50.9-113.68-113.68-113.68c-32.36,0-58.58,26.23-58.58,58.58s26.23,58.58,59.28,58.58
		h155.36"/>
	<circle class="st3" cx="582.83" cy="620.63" r="40"/>
	<text transform="matrix(1 0 0 1 562.8068 617.4671)"><tspan x="0" y="0" class="st4 st5 st6">pesquisa e  </tspan><tspan x="-11.12" y="11" class="st4 st5 st6">formação de rede</tspan></text>
	<g>
		<g>
			<g>
				<path class="st7" d="M620.7,685.32c-0.13,0.41-0.56,0.64-0.97,0.51l-14.79-4.57c-0.41-0.13-0.64-0.56-0.51-0.97
					s0.56-0.64,0.97-0.51l14.79,4.57C620.6,684.47,620.83,684.91,620.7,685.32z"/>
			</g>
		</g>
		<g>
			<g>
				<path class="st7" d="M620.7,685.32c-0.06,0.2-0.2,0.36-0.38,0.46l-4.88,2.57c-0.38,0.2-0.85,0.05-1.05-0.32
					c-0.2-0.38-0.06-0.85,0.32-1.05l4.19-2.21l-2.22-4.21c-0.2-0.38-0.06-0.85,0.32-1.05c0.38-0.2,0.85-0.05,1.05,0.32l2.58,4.89
					C620.74,684.91,620.76,685.12,620.7,685.32z"/>
			</g>
		</g>
	</g>
	<g>
		<g>
			<g>
				<path class="st7" d="M727.28,621.39c0.39-0.19,0.85-0.02,1.04,0.37l6.68,13.97c0.19,0.39,0.02,0.85-0.37,1.04
					c-0.39,0.19-0.85,0.02-1.04-0.37l-6.68-13.97C726.73,622.04,726.89,621.57,727.28,621.39z"/>
			</g>
		</g>
		<g>
			<g>
				<path class="st7" d="M727.28,621.39c0.19-0.09,0.4-0.1,0.59-0.03l5.2,1.84c0.4,0.14,0.62,0.59,0.47,0.99
					c-0.14,0.4-0.59,0.62-0.99,0.47l-4.47-1.58l-1.58,4.48c-0.14,0.4-0.59,0.62-0.99,0.47c-0.4-0.14-0.62-0.59-0.47-0.99l1.84-5.22
					C726.95,621.64,727.09,621.48,727.28,621.39z"/>
			</g>
		</g>
	</g>
	<g>
		<g>
			<g>
				<path class="st7" d="M660.81,572.65c0.14-0.41,0.58-0.62,0.99-0.48l14.63,5.05c0.41,0.14,0.62,0.58,0.48,0.99
					c-0.14,0.41-0.58,0.62-0.99,0.48l-14.63-5.05C660.89,573.5,660.67,573.06,660.81,572.65z"/>
			</g>
		</g>
		<g>
			<g>
				<path class="st7" d="M660.81,572.65c0.07-0.19,0.21-0.36,0.39-0.45l4.96-2.41c0.39-0.19,0.85-0.03,1.04,0.36
					c0.19,0.39,0.03,0.85-0.36,1.04l-4.26,2.07l2.08,4.27c0.19,0.39,0.03,0.85-0.36,1.04s-0.85,0.03-1.04-0.36l-2.42-4.97
					C660.76,573.06,660.74,572.85,660.81,572.65z"/>
			</g>
		</g>
	</g>
	<g>
		<g>
			<g>
				<path class="st7" d="M701.27,686.16c0,0.43-0.35,0.78-0.78,0.78h-15.48c-0.43,0-0.78-0.35-0.78-0.78c0-0.43,0.35-0.78,0.78-0.78
					h15.48C700.92,685.39,701.27,685.73,701.27,686.16z"/>
			</g>
		</g>
		<g>
			<g>
				<path class="st7" d="M701.27,686.16c0,0.21-0.08,0.4-0.23,0.55l-3.9,3.9c-0.3,0.3-0.8,0.3-1.1,0c-0.3-0.3-0.3-0.8,0-1.1
					l3.35-3.35l-3.36-3.36c-0.3-0.3-0.3-0.8,0-1.1c0.3-0.3,0.8-0.3,1.1,0l3.91,3.91C701.19,685.76,701.27,685.96,701.27,686.16z"/>
			</g>
		</g>
	</g>
</g>
<path class="st8" d="M859.72,1091.27c0,62.78-50.9,113.68-113.68,113.68c-32.36,0-58.58-26.23-58.58-58.58
	c0-32.36,26.23-58.58,59.28-58.58H902.1"/>
<circle class="st9" cx="697.88" cy="1153.39" r="40"/>
<text transform="matrix(1 0 0 1 677.9386 1150.2235)"><tspan x="0" y="0" class="st4 st5 st6">pesquisa e  </tspan><tspan x="-11.12" y="11" class="st4 st5 st6">formação de rede</tspan></text>
<g>
	<circle class="st10" cx="1487.91" cy="636.79" r="7"/>
	<text transform="matrix(1 0 0 1 1483.5377 639.5174)" class="st11 st12 st13">SD</text>
</g>
<g>
	<circle class="st14" cx="976.32" cy="636.79" r="7"/>
	<text transform="matrix(1 -8.890000e-03 8.890000e-03 1 971.9065 639.451)" class="st11 st12 st13">PP</text>
</g>
<line class="st2" x1="744.71" y1="686.23" x2="1615.3" y2="686.23"/>
<line class="st2" x1="1243.34" y1="686.28" x2="1884.68" y2="686.28"/>
<path class="st2" d="M410.52,922.36H627.6c64.7,0,118.09-51.46,118.09-116.16l0-72.5l-0.94-56.62"/>
<path class="st2" d="M203.39,779.03v59.23c0,46.45,37.65,84.1,84.1,84.1h366.6"/>
<line class="st15" x1="389.44" y1="755.52" x2="162.21" y2="755.52"/>
<g>
	<circle class="st16" cx="203.13" cy="755.52" r="37.5"/>
	<path class="st17" d="M203.13,720.52c19.3,0,35,15.7,35,35s-15.7,35-35,35s-35-15.7-35-35S183.83,720.52,203.13,720.52
		 M203.13,715.52c-22.09,0-40,17.91-40,40c0,22.09,17.91,40,40,40c22.09,0,40-17.91,40-40
		C243.13,733.43,225.22,715.52,203.13,715.52L203.13,715.52z"/>
</g>
<circle class="st3" cx="570.14" cy="922.39" r="40"/>
<circle class="st3" cx="448.74" cy="922.39" r="40"/>
<circle class="st3" cx="328.36" cy="922.39" r="40"/>
<circle class="st3" cx="1244.58" cy="685.43" r="40"/>
<circle class="st3" cx="1500.05" cy="685.43" r="40"/>
<circle class="st3" cx="1629.48" cy="685.43" r="40"/>
<circle class="st3" cx="1756.98" cy="685.43" r="40"/>
<g>
	<circle class="st18" cx="1884.68" cy="685.43" r="37.5"/>
	<path class="st17" d="M1884.68,650.43c19.3,0,35,15.7,35,35s-15.7,35-35,35s-35-15.7-35-35S1865.38,650.43,1884.68,650.43
		 M1884.68,645.43c-22.09,0-40,17.91-40,40c0,22.09,17.91,40,40,40c22.09,0,40-17.91,40-40
		C1924.68,663.34,1906.77,645.43,1884.68,645.43L1884.68,645.43z"/>
</g>
<path class="st8" d="M859.86,1077.93l0.01-13.79v-45.03c0-45.97-37.27-83.24-83.24-83.24h-219.7"/>
<path class="st8" d="M238.47,1079.2v-59.23c0-46.45,37.65-84.1,84.1-84.1h307.83"/>
<path class="st19" d="M246.24,1034.58"/>
<circle class="st9" cx="561.7" cy="935.87" r="40"/>
<circle class="st9" cx="440.3" cy="935.75" r="40"/>
<circle class="st9" cx="319.9" cy="935.75" r="40"/>
<line class="st15" x1="548.99" y1="770.19" x2="766.06" y2="770.19"/>
<text transform="matrix(1 0 0 1 548.9874 764.2752)" class="st16 st5 st20">aprofundamento</text>
<line class="st15" x1="1192.79" y1="588.81" x2="1192.79" y2="708.15"/>
<text transform="matrix(1 0 0 1 1198.8405 597.2703)" class="st16 st5 st20">MONITORAMENTO</text>
<text transform="matrix(1 0 0 1 315.2252 768.949)"><tspan x="0" y="0" class="st16 st5 st20">REDEFINIÇÃO </tspan><tspan x="9.32" y="15" class="st16 st5 st20">DE DESAFIO</tspan></text>
<text transform="matrix(1 0 0 1 352.3131 1059.6542)"><tspan x="0" y="0" class="st21 st5 st20">REDEFINIÇÃO</tspan><tspan x="9.32" y="15" class="st21 st5 st20">DE DESAFIO</tspan></text>
<g>
	<g>
		<path class="st22" d="M387.78,935.88c0,0.43-0.35,0.78-0.78,0.78h-15.48c-0.43,0-0.78-0.35-0.78-0.78c0-0.43,0.35-0.78,0.78-0.78
			H387C387.43,935.1,387.78,935.45,387.78,935.88z"/>
	</g>
	<g>
		<path class="st22" d="M387.78,935.88c0,0.21-0.08,0.4-0.23,0.55l-3.9,3.9c-0.3,0.3-0.8,0.3-1.1,0c-0.3-0.3-0.3-0.8,0-1.1
			l3.35-3.35l-3.36-3.36c-0.3-0.3-0.3-0.8,0-1.1c0.3-0.3,0.8-0.3,1.1,0l3.91,3.91C387.7,935.47,387.78,935.67,387.78,935.88z"/>
	</g>
</g>
<g>
	<g>
		<path class="st22" d="M239.72,1009.67c0.43,0,0.78,0.35,0.78,0.78v15.48c0,0.43-0.35,0.78-0.78,0.78c-0.43,0-0.78-0.35-0.78-0.78
			v-15.48C238.94,1010.02,239.29,1009.67,239.72,1009.67z"/>
	</g>
	<g>
		<path class="st22" d="M239.72,1009.67c0.21,0,0.4,0.08,0.55,0.23l3.9,3.9c0.3,0.3,0.3,0.8,0,1.1c-0.3,0.3-0.8,0.3-1.1,0
			l-3.35-3.35l-3.36,3.36c-0.3,0.3-0.8,0.3-1.1,0c-0.3-0.3-0.3-0.8,0-1.1l3.91-3.91C239.31,1009.75,239.51,1009.67,239.72,1009.67z"
			/>
	</g>
</g>
<g>
	<g>
		<path class="st22" d="M266.17,959.15c0.31,0.29,0.33,0.78,0.04,1.1l-10.54,11.34c-0.29,0.31-0.78,0.33-1.1,0.04
			s-0.33-0.78-0.04-1.1l10.54-11.34C265.36,958.87,265.86,958.85,266.17,959.15z"/>
	</g>
	<g>
		<path class="st22" d="M266.17,959.15c0.15,0.14,0.24,0.33,0.25,0.54l0.2,5.51c0.02,0.43-0.32,0.79-0.75,0.81
			c-0.43,0.02-0.79-0.32-0.81-0.75l-0.17-4.73l-4.75,0.17c-0.43,0.02-0.79-0.32-0.81-0.75c-0.02-0.43,0.32-0.79,0.75-0.81l5.53-0.2
			C265.82,958.93,266.02,959.01,266.17,959.15z"/>
	</g>
</g>
<g>
	<g>
		<path class="st22" d="M843.02,970.3c-0.33,0.27-0.82,0.22-1.09-0.11l-9.8-11.98c-0.27-0.33-0.22-0.82,0.11-1.09
			c0.33-0.27,0.82-0.22,1.09,0.11l9.8,11.98C843.4,969.53,843.35,970.02,843.02,970.3z"/>
	</g>
	<g>
		<path class="st22" d="M843.02,970.3c-0.16,0.13-0.36,0.19-0.57,0.17l-5.49-0.55c-0.43-0.04-0.74-0.42-0.7-0.85
			c0.04-0.43,0.42-0.74,0.85-0.7l4.71,0.47l0.47-4.73c0.04-0.43,0.42-0.74,0.85-0.7c0.43,0.04,0.74,0.42,0.7,0.85l-0.55,5.5
			C843.28,969.98,843.18,970.16,843.02,970.3z"/>
	</g>
</g>
<g>
	<g>
		<path class="st22" d="M511.84,935.88c0,0.43-0.35,0.78-0.78,0.78h-15.48c-0.43,0-0.78-0.35-0.78-0.78c0-0.43,0.35-0.78,0.78-0.78
			h15.48C511.49,935.1,511.84,935.45,511.84,935.88z"/>
	</g>
	<g>
		<path class="st22" d="M511.84,935.88c0,0.21-0.08,0.4-0.23,0.55l-3.9,3.9c-0.3,0.3-0.8,0.3-1.1,0c-0.3-0.3-0.3-0.8,0-1.1
			l3.35-3.35l-3.36-3.36c-0.3-0.3-0.3-0.8,0-1.1c0.3-0.3,0.8-0.3,1.1,0l3.91,3.91C511.76,935.47,511.84,935.67,511.84,935.88z"/>
	</g>
</g>
<g>
	<g>
		<path class="st22" d="M647.03,935.88c0,0.43-0.35,0.78-0.78,0.78h-15.48c-0.43,0-0.78-0.35-0.78-0.78c0-0.43,0.35-0.78,0.78-0.78
			h15.48C646.69,935.1,647.03,935.45,647.03,935.88z"/>
	</g>
	<g>
		<path class="st22" d="M647.03,935.88c0,0.21-0.08,0.4-0.23,0.55l-3.9,3.9c-0.3,0.3-0.8,0.3-1.1,0c-0.3-0.3-0.3-0.8,0-1.1
			l3.35-3.35l-3.36-3.36c-0.3-0.3-0.3-0.8,0-1.1c0.3-0.3,0.8-0.3,1.1,0l3.91,3.91C646.95,935.47,647.03,935.67,647.03,935.88z"/>
	</g>
</g>
<g>
	<g>
		<path class="st22" d="M719.22,935.88c0,0.43-0.35,0.78-0.78,0.78h-15.48c-0.43,0-0.78-0.35-0.78-0.78c0-0.43,0.35-0.78,0.78-0.78
			h15.48C718.88,935.1,719.22,935.45,719.22,935.88z"/>
	</g>
	<g>
		<path class="st22" d="M719.22,935.88c0,0.21-0.08,0.4-0.23,0.55l-3.9,3.9c-0.3,0.3-0.8,0.3-1.1,0c-0.3-0.3-0.3-0.8,0-1.1
			l3.35-3.35l-3.36-3.36c-0.3-0.3-0.3-0.8,0-1.1c0.3-0.3,0.8-0.3,1.1,0l3.91,3.91C719.14,935.47,719.22,935.67,719.22,935.88z"/>
	</g>
</g>
<g>
	<g>
		<path class="st22" d="M786.08,935.88c0,0.43-0.35,0.78-0.78,0.78h-15.48c-0.43,0-0.78-0.35-0.78-0.78c0-0.43,0.35-0.78,0.78-0.78
			h15.48C785.74,935.1,786.08,935.45,786.08,935.88z"/>
	</g>
	<g>
		<path class="st22" d="M786.08,935.88c0,0.21-0.08,0.4-0.23,0.55l-3.9,3.9c-0.3,0.3-0.8,0.3-1.1,0c-0.3-0.3-0.3-0.8,0-1.1
			l3.35-3.35l-3.36-3.36c-0.3-0.3-0.3-0.8,0-1.1c0.3-0.3,0.8-0.3,1.1,0l3.91,3.91C786,935.47,786.08,935.67,786.08,935.88z"/>
	</g>
</g>
<g>
	<circle class="st21" cx="239.61" cy="1079.2" r="40"/>
	<path class="st23" d="M239.61,1041.7c20.71,0,37.5,16.79,37.5,37.5s-16.79,37.5-37.5,37.5c-20.71,0-37.5-16.79-37.5-37.5
		S218.9,1041.7,239.61,1041.7 M239.61,1036.7c-23.43,0-42.5,19.07-42.5,42.5s19.07,42.5,42.5,42.5c23.43,0,42.5-19.07,42.5-42.5
		S263.04,1036.7,239.61,1036.7L239.61,1036.7z"/>
</g>
<line class="st24" x1="427.52" y1="1079.2" x2="282.19" y2="1079.2"/>
<g>
	<text transform="matrix(1 0 0 1 1576.6881 597.2704)" class="st16 st5 st20">comunicação</text>
</g>
<line class="st15" x1="1570.69" y1="588.81" x2="1570.69" y2="706.97"/>
<g>
	<circle class="st25" cx="1588.46" cy="656.28" r="7"/>
	<text transform="matrix(1 0 0 1 1583.9042 658.8826)" class="st11 st12 st13">CC</text>
</g>
<g>
	<circle class="st25" cx="1716.03" cy="656.28" r="7"/>
	<text transform="matrix(1 0 0 1 1711.4757 658.8817)" class="st11 st12 st13">CC</text>
</g>
<g>
	<circle class="st26" cx="1203.02" cy="656.28" r="7"/>
	<text transform="matrix(1 0 0 1 1198.4458 659.0067)" class="st11 st12 st13">CD</text>
</g>
<g>
	<circle class="st23" cx="1459.08" cy="656.32" r="7"/>
	<g>
		<text transform="matrix(1 0 0 1 1456.7823 658.9822)" class="st11 st12 st13">D</text>
	</g>
</g>
<g>
	<circle class="st26" cx="1471.68" cy="643.66" r="7"/>
	<text transform="matrix(1 0 0 1 1467.1107 646.3856)" class="st11 st12 st13">CD</text>
</g>
<g>
	<g>
		<g>
			<path class="st7" d="M797.6,686.24c0,0.43-0.35,0.78-0.78,0.78h-15.48c-0.43,0-0.78-0.35-0.78-0.78s0.35-0.78,0.78-0.78h15.48
				C797.25,685.46,797.6,685.81,797.6,686.24z"/>
		</g>
	</g>
	<g>
		<g>
			<path class="st7" d="M797.6,686.24c0,0.21-0.08,0.4-0.23,0.55l-3.9,3.9c-0.3,0.3-0.8,0.3-1.1,0c-0.3-0.3-0.3-0.8,0-1.1l3.35-3.35
				l-3.36-3.36c-0.3-0.3-0.3-0.8,0-1.1c0.3-0.3,0.8-0.3,1.1,0l3.91,3.91C797.52,685.84,797.6,686.03,797.6,686.24z"/>
		</g>
	</g>
</g>
<g>
	<g>
		<g>
			<g>
				<path class="st7" d="M203.17,825.06c-0.43,0-0.78-0.35-0.78-0.78V808.8c0-0.43,0.35-0.78,0.78-0.78c0.43,0,0.78,0.35,0.78,0.78
					v15.48C203.95,824.71,203.6,825.06,203.17,825.06z"/>
			</g>
		</g>
		<g>
			<g>
				<path class="st7" d="M203.17,825.06c-0.21,0-0.4-0.08-0.55-0.23l-3.9-3.9c-0.3-0.3-0.3-0.8,0-1.1c0.3-0.3,0.8-0.3,1.1,0
					l3.35,3.35l3.36-3.36c0.3-0.3,0.8-0.3,1.1,0c0.3,0.3,0.3,0.8,0,1.1l-3.91,3.91C203.57,824.97,203.38,825.06,203.17,825.06z"/>
			</g>
		</g>
	</g>
</g>
<g>
	<g>
		<g>
			<g>
				<path class="st7" d="M1317.24,686.28c0,0.43-0.35,0.78-0.78,0.78h-15.48c-0.43,0-0.78-0.35-0.78-0.78
					c0-0.43,0.35-0.78,0.78-0.78h15.48C1316.89,685.5,1317.24,685.85,1317.24,686.28z"/>
			</g>
		</g>
		<g>
			<g>
				<path class="st7" d="M1317.24,686.28c0,0.21-0.08,0.4-0.23,0.55l-3.9,3.9c-0.3,0.3-0.8,0.3-1.1,0c-0.3-0.3-0.3-0.8,0-1.1
					l3.35-3.35l-3.36-3.36c-0.3-0.3-0.3-0.8,0-1.1c0.3-0.3,0.8-0.3,1.1,0l3.91,3.91C1317.16,685.88,1317.24,686.08,1317.24,686.28z"
					/>
			</g>
		</g>
	</g>
</g>
<g>
	<g>
		<g>
			<g>
				<path class="st7" d="M1444.98,686.28c0,0.43-0.35,0.78-0.78,0.78h-15.48c-0.43,0-0.78-0.35-0.78-0.78
					c0-0.43,0.35-0.78,0.78-0.78h15.48C1444.63,685.5,1444.98,685.85,1444.98,686.28z"/>
			</g>
		</g>
		<g>
			<g>
				<path class="st7" d="M1444.98,686.28c0,0.21-0.08,0.4-0.23,0.55l-3.9,3.9c-0.3,0.3-0.8,0.3-1.1,0c-0.3-0.3-0.3-0.8,0-1.1
					l3.35-3.35l-3.36-3.36c-0.3-0.3-0.3-0.8,0-1.1c0.3-0.3,0.8-0.3,1.1,0l3.91,3.91C1444.9,685.88,1444.98,686.08,1444.98,686.28z"
					/>
			</g>
		</g>
	</g>
</g>
<g>
	<g>
		<g>
			<g>
				<path class="st7" d="M1563.89,686.28c0,0.43-0.35,0.78-0.78,0.78h-15.48c-0.43,0-0.78-0.35-0.78-0.78
					c0-0.43,0.35-0.78,0.78-0.78h15.48C1563.54,685.5,1563.89,685.85,1563.89,686.28z"/>
			</g>
		</g>
		<g>
			<g>
				<path class="st7" d="M1563.89,686.28c0,0.21-0.08,0.4-0.23,0.55l-3.9,3.9c-0.3,0.3-0.8,0.3-1.1,0c-0.3-0.3-0.3-0.8,0-1.1
					l3.35-3.35l-3.36-3.36c-0.3-0.3-0.3-0.8,0-1.1c0.3-0.3,0.8-0.3,1.1,0l3.91,3.91C1563.81,685.88,1563.89,686.08,1563.89,686.28z"
					/>
			</g>
		</g>
	</g>
</g>
<g>
	<g>
		<g>
			<g>
				<path class="st7" d="M932.31,686.14c0,0.43-0.35,0.78-0.78,0.78h-15.48c-0.43,0-0.78-0.35-0.78-0.78s0.35-0.78,0.78-0.78h15.48
					C931.97,685.36,932.31,685.71,932.31,686.14z"/>
			</g>
		</g>
		<g>
			<g>
				<path class="st7" d="M932.31,686.14c0,0.21-0.08,0.4-0.23,0.55l-3.9,3.9c-0.3,0.3-0.8,0.3-1.1,0c-0.3-0.3-0.3-0.8,0-1.1
					l3.35-3.35l-3.36-3.36c-0.3-0.3-0.3-0.8,0-1.1c0.3-0.3,0.8-0.3,1.1,0l3.91,3.91C932.23,685.73,932.31,685.93,932.31,686.14z"/>
			</g>
		</g>
	</g>
</g>
<g>
	<g>
		<g>
			<g>
				<path class="st7" d="M1060.91,686.14c0,0.43-0.35,0.78-0.78,0.78h-15.48c-0.43,0-0.78-0.35-0.78-0.78s0.35-0.78,0.78-0.78h15.48
					C1060.56,685.36,1060.91,685.71,1060.91,686.14z"/>
			</g>
		</g>
		<g>
			<g>
				<path class="st7" d="M1060.91,686.14c0,0.21-0.08,0.4-0.23,0.55l-3.9,3.9c-0.3,0.3-0.8,0.3-1.1,0c-0.3-0.3-0.3-0.8,0-1.1
					l3.35-3.35l-3.36-3.36c-0.3-0.3-0.3-0.8,0-1.1c0.3-0.3,0.8-0.3,1.1,0l3.91,3.91C1060.83,685.73,1060.91,685.93,1060.91,686.14z"
					/>
			</g>
		</g>
	</g>
</g>
<g>
	<g>
		<g>
			<g>
				<path class="st7" d="M1183.21,686.14c0,0.43-0.35,0.78-0.78,0.78h-15.48c-0.43,0-0.78-0.35-0.78-0.78s0.35-0.78,0.78-0.78h15.48
					C1182.86,685.36,1183.21,685.71,1183.21,686.14z"/>
			</g>
		</g>
		<g>
			<g>
				<path class="st7" d="M1183.21,686.14c0,0.21-0.08,0.4-0.23,0.55l-3.9,3.9c-0.3,0.3-0.8,0.3-1.1,0c-0.3-0.3-0.3-0.8,0-1.1
					l3.35-3.35l-3.36-3.36c-0.3-0.3-0.3-0.8,0-1.1c0.3-0.3,0.8-0.3,1.1,0l3.91,3.91C1183.13,685.73,1183.21,685.93,1183.21,686.14z"
					/>
			</g>
		</g>
	</g>
</g>
<g>
	<g>
		<g>
			<g>
				<path class="st7" d="M1829.35,686.28c0,0.43-0.35,0.78-0.78,0.78h-15.48c-0.43,0-0.78-0.35-0.78-0.78
					c0-0.43,0.35-0.78,0.78-0.78h15.48C1829,685.5,1829.35,685.85,1829.35,686.28z"/>
			</g>
		</g>
		<g>
			<g>
				<path class="st7" d="M1829.35,686.28c0,0.21-0.08,0.4-0.23,0.55l-3.9,3.9c-0.3,0.3-0.8,0.3-1.1,0c-0.3-0.3-0.3-0.8,0-1.1
					l3.35-3.35l-3.36-3.36c-0.3-0.3-0.3-0.8,0-1.1c0.3-0.3,0.8-0.3,1.1,0l3.91,3.91C1829.27,685.88,1829.35,686.08,1829.35,686.28z"
					/>
			</g>
		</g>
	</g>
</g>
<g>
	<g>
		<g>
			<g>
				<path class="st7" d="M1701.75,686.28c0,0.43-0.35,0.78-0.78,0.78h-15.48c-0.43,0-0.78-0.35-0.78-0.78
					c0-0.43,0.35-0.78,0.78-0.78h15.48C1701.4,685.5,1701.75,685.85,1701.75,686.28z"/>
			</g>
		</g>
		<g>
			<g>
				<path class="st7" d="M1701.75,686.28c0,0.21-0.08,0.4-0.23,0.55l-3.9,3.9c-0.3,0.3-0.8,0.3-1.1,0c-0.3-0.3-0.3-0.8,0-1.1
					l3.35-3.35l-3.36-3.36c-0.3-0.3-0.3-0.8,0-1.1c0.3-0.3,0.8-0.3,1.1,0l3.91,3.91C1701.67,685.88,1701.75,686.08,1701.75,686.28z"
					/>
			</g>
		</g>
	</g>
</g>
<g>
	<g>
		<g>
			<g>
				<path class="st7" d="M215.54,882.31c-0.39,0.18-0.85,0.01-1.03-0.39l-6.41-14.09c-0.18-0.39-0.01-0.85,0.39-1.03
					c0.39-0.18,0.85-0.01,1.03,0.39l6.41,14.09C216.1,881.67,215.93,882.13,215.54,882.31z"/>
			</g>
		</g>
		<g>
			<g>
				<path class="st7" d="M215.54,882.31c-0.19,0.09-0.4,0.09-0.59,0.02l-5.16-1.93c-0.4-0.15-0.61-0.6-0.46-1
					c0.15-0.4,0.6-0.61,1-0.46l4.44,1.66l1.67-4.45c0.15-0.4,0.6-0.61,1-0.46c0.4,0.15,0.61,0.6,0.46,1l-1.94,5.18
					C215.87,882.07,215.72,882.23,215.54,882.31z"/>
			</g>
		</g>
	</g>
</g>
<g>
	<g>
		<g>
			<g>
				<path class="st7" d="M258.25,917.54c-0.2,0.38-0.67,0.53-1.05,0.33l-13.74-7.14c-0.38-0.2-0.53-0.67-0.33-1.05
					c0.2-0.38,0.67-0.53,1.05-0.33l13.74,7.14C258.3,916.69,258.45,917.16,258.25,917.54z"/>
			</g>
		</g>
		<g>
			<g>
				<path class="st7" d="M258.25,917.54c-0.1,0.18-0.26,0.32-0.46,0.38l-5.26,1.66c-0.41,0.13-0.85-0.1-0.98-0.51
					c-0.13-0.41,0.1-0.85,0.51-0.98l4.52-1.43l-1.43-4.53c-0.13-0.41,0.1-0.85,0.51-0.98c0.41-0.13,0.85,0.1,0.98,0.51l1.67,5.27
					C258.37,917.15,258.35,917.36,258.25,917.54z"/>
			</g>
		</g>
	</g>
</g>
<g id="XMLID_446_">
	<g>
		<path class="st27" d="M1896.42,692.55v2.87h0c0,2.87-5.26,5.19-11.74,5.19c-6.48,0-11.74-2.32-11.74-5.19v-2.96
			c0,0.48,0.15,0.95,0.43,1.39c0.02,0.03,0.04,0.06,0.06,0.09v0c1.44,2.14,5.93,3.71,11.25,3.71c5.32,0,9.81-1.56,11.25-3.71v0
			c0.02-0.03,0.04-0.06,0.06-0.1C1896.26,693.43,1896.4,692.99,1896.42,692.55z"/>
		<path class="st28" d="M1895.82,690.81c0.11,1.02,0.18,2.04,0.18,3.03h0c-0.02,0.03-0.04,0.06-0.06,0.1v0
			c-1.44,2.14-5.93,3.71-11.25,3.71c-5.32,0-9.81-1.56-11.25-3.71v0c-0.02-0.03-0.04-0.06-0.06-0.09l0.01,0
			c0-0.99,0.07-2.02,0.18-3.04c0.62-5.69,2.67-11.36,2.67-11.36l0.02,0c-0.02,0.1-0.03,0.2-0.03,0.3c0,2,3.88,3.62,8.47,3.62
			c4.59,0,8.47-1.62,8.47-3.62c0-0.1-0.01-0.2-0.03-0.3l0.03-0.01C1893.15,679.44,1895.2,685.12,1895.82,690.81z"/>
		<path class="st28" d="M1893.12,679.44c0.02,0.1,0.03,0.2,0.03,0.3c0,2-3.88,3.62-8.47,3.62c-4.59,0-8.47-1.62-8.47-3.62
			c0-0.1,0.01-0.2,0.03-0.3c0.37-1.86,4.08-3.32,8.44-3.32C1889.04,676.12,1892.75,677.58,1893.12,679.44z"/>
	</g>
	<g>
		<path class="st29" d="M1872.94,695.42c0,2.87,5.26,5.19,11.74,5.19c6.48,0,11.74-2.32,11.74-5.19"/>
		<path class="st29" d="M1872.94,692.45c0-0.58,0.21-1.14,0.61-1.66c0-0.01,0.01-0.01,0.01-0.02"/>
		<path class="st29" d="M1895.81,690.8c0,0,0.01,0.01,0.01,0.01c0.39,0.52,0.6,1.07,0.6,1.65c0,0.03,0,0.06,0,0.09
			c-0.02,0.45-0.16,0.88-0.42,1.29c-0.02,0.03-0.04,0.06-0.06,0.1v0c-1.44,2.14-5.93,3.71-11.25,3.71c-5.32,0-9.81-1.56-11.25-3.71
			v0c-0.02-0.03-0.04-0.06-0.06-0.09c-0.28-0.44-0.43-0.91-0.43-1.39"/>
		<path class="st29" d="M1876.24,679.44c-0.02,0.1-0.03,0.2-0.03,0.3c0,2,3.88,3.62,8.47,3.62c4.59,0,8.47-1.62,8.47-3.62
			c0-0.1-0.01-0.2-0.03-0.3c-0.36-1.86-4.08-3.32-8.44-3.32C1880.32,676.12,1876.61,677.58,1876.24,679.44z"/>
		<path class="st29" d="M1893.15,679.44c0,0,2.05,5.68,2.67,11.37c0.11,1.02,0.18,2.04,0.18,3.03"/>
		<path class="st29" d="M1876.23,679.44c0,0-2.05,5.67-2.67,11.36c-0.11,1.03-0.18,2.05-0.18,3.04"/>
		<polyline class="st29" points="1896.42,692.45 1896.42,692.55 1896.42,695.42 		"/>
		<polyline class="st29" points="1872.94,692.45 1872.94,692.46 1872.94,695.42 		"/>
		<line class="st29" x1="1878.56" y1="673.38" x2="1877.27" y2="671.15"/>
		<line class="st29" x1="1884.68" y1="671.74" x2="1884.68" y2="669.16"/>
		<line class="st29" x1="1890.8" y1="673.38" x2="1892.09" y2="671.15"/>
		<line class="st29" x1="1895.28" y1="677.86" x2="1897.51" y2="676.57"/>
		<line class="st29" x1="1874.08" y1="677.86" x2="1871.85" y2="676.57"/>
	</g>
</g>
<g>
	<circle class="st23" cx="1331.85" cy="656.28" r="7"/>
	<g>
		<text transform="matrix(1 0 0 1 1329.5521 658.9393)" class="st11 st12 st13">D</text>
	</g>
</g>
<g>
	<circle class="st26" cx="1344.5" cy="643.66" r="7"/>
	<text transform="matrix(1 0 0 1 1339.9261 646.3856)" class="st11 st12 st13">CD</text>
</g>
<g>
	<circle class="st14" cx="1360.72" cy="636.79" r="7"/>
	<text transform="matrix(1 0 0 1 1356.307 639.5174)" class="st11 st12 st13">PP</text>
</g>
<circle class="st3" cx="1372.87" cy="685.43" r="40"/>
<g>
	<circle class="st3" cx="859.4" cy="685.43" r="40"/>
	<text transform="matrix(1 0 0 1 838.7467 683.4256)"><tspan x="0" y="0" class="st4 st5 st6">delimitação</tspan><tspan x="2.48" y="11" class="st4 st5 st6">de escopo</tspan></text>
</g>
<text transform="matrix(1 0 0 1 1480.9254 671.2708)"><tspan x="0" y="0" class="st4 st5 st6">desenho e  </tspan><tspan x="-1.61" y="11" class="st4 st5 st6">construção  </tspan><tspan x="2.2" y="22" class="st4 st5 st6">de painel  </tspan><tspan x="-6.76" y="33" class="st4 st5 st6">de indicadores</tspan></text>
<circle class="st3" cx="1116.6" cy="685.43" r="40"/>
<g>
	<circle class="st26" cx="1075.81" cy="656.28" r="7"/>
	<g>
		<text transform="matrix(1 0 0 1 1071.2327 658.9402)" class="st11 st12 st13">CD</text>
	</g>
</g>
<text transform="matrix(1 0 0 1 1086.8541 676.7713)"><tspan x="0" y="0" class="st4 st5 st6">coleta preliminar</tspan><tspan x="11.98" y="11" class="st4 st5 st6">e escolha  </tspan><tspan x="3.85" y="22" class="st4 st5 st6">de indicadores</tspan></text>
<text transform="matrix(1 0 0 1 1221.317 678.4695)"><tspan x="0" y="0" class="st4 st5 st6">arquitetura e </tspan><tspan x="-3.66" y="11" class="st4 st5 st6">coleta contínua</tspan><tspan x="7.4" y="22" class="st4 st5 st6">de dados</tspan></text>
<text transform="matrix(1 0 0 1 305.9039 938.0858)" class="st11 st5 st6">anúncio</text>
<text transform="matrix(1 0 0 1 540.1573 929.3387)"><tspan x="0" y="0" class="st11 st5 st6">fechamento</tspan><tspan x="4.84" y="11" class="st11 st5 st6">do time e</tspan><tspan x="-0.26" y="22" class="st11 st5 st6">cronograma</tspan></text>
<g>
	<text transform="matrix(1 0 0 1 182.8346 757.8582)" class="st11 st5 st6">radar Inova</text>
</g>
<text transform="matrix(1 0 0 1 223.9879 1078.2987)"><tspan x="0" y="0" class="st11 st5 st6">alert</tspan><tspan x="15.96" y="0" class="st11 st5 st6">a ou</tspan><tspan x="-4.67" y="11" class="st11 st5 st6">radar Inova</tspan></text>
<g>
	<text transform="matrix(1 0 0 1 1611.5314 681.7029)"><tspan x="0" y="0" class="st4 st5 st6">produção </tspan><tspan x="-2.68" y="11" class="st4 st5 st6">de relatório</tspan></text>
</g>
<g>
	<text transform="matrix(1 0 0 1 1737.4249 684.8826)"><tspan x="0" y="0" class="st4 st5 st6">divulgação</tspan><tspan x="1.26" y="11" class="st4 st5 st6">do projeto</tspan></text>
</g>
<text transform="matrix(1 0 0 1 1351.9323 683.9695)"><tspan x="0" y="0" class="st4 st5 st6">modelagem</tspan><tspan x="5.23" y="11" class="st4 st5 st6">e análise</tspan></text>
<g>
	<circle class="st11" cx="481.19" cy="906.72" r="7"/>
	<circle class="st23" cx="481.19" cy="906.72" r="7"/>
	<g>
		<text transform="matrix(1 0 0 1 478.8976 909.3773)" class="st11 st12 st13">D</text>
	</g>
</g>
<g>
	<circle class="st10" cx="1215.67" cy="643.66" r="7"/>
	<text transform="matrix(1 0 0 1 1211.2854 646.2459)" class="st11 st12 st13">SD</text>
</g>
<path class="st2" d="M1242.12,747.88"/>
<g>
	<text transform="matrix(1 0 0 1 419.0357 932.5872)"><tspan x="0" y="0" class="st11 st5 st6">redefinição  </tspan><tspan x="2.44" y="11" class="st11 st5 st6">do desafio</tspan></text>
</g>
<g>
	<g>
		<g>
			<g>
				<path class="st7" d="M733.75,857.76c0.37,0.22,0.49,0.7,0.26,1.07l-7.99,13.26c-0.22,0.37-0.7,0.49-1.07,0.26
					c-0.37-0.22-0.49-0.7-0.26-1.07l7.99-13.26C732.9,857.66,733.38,857.54,733.75,857.76z"/>
			</g>
		</g>
		<g>
			<g>
				<path class="st7" d="M733.75,857.76c0.18,0.11,0.3,0.28,0.35,0.48l1.33,5.35c0.1,0.42-0.15,0.84-0.57,0.94
					c-0.42,0.1-0.84-0.15-0.94-0.57l-1.14-4.6l-4.62,1.14c-0.42,0.1-0.84-0.15-0.94-0.57c-0.1-0.42,0.15-0.84,0.57-0.94l5.37-1.33
					C733.36,857.62,733.57,857.66,733.75,857.76z"/>
			</g>
		</g>
	</g>
</g>
<g>
	<g>
		<g>
			<g>
				<path class="st7" d="M745.62,795.5c0.43,0,0.78,0.35,0.78,0.78l0.04,15.48c0,0.43-0.35,0.78-0.78,0.78
					c-0.43,0-0.78-0.35-0.78-0.78l-0.04-15.48C744.85,795.85,745.19,795.5,745.62,795.5z"/>
			</g>
		</g>
		<g>
			<g>
				<path class="st7" d="M745.62,795.5c0.21,0,0.4,0.08,0.55,0.23l3.91,3.89c0.3,0.3,0.31,0.79,0,1.1c-0.3,0.3-0.79,0.31-1.1,0
					l-3.36-3.34l-3.35,3.37c-0.3,0.3-0.79,0.31-1.1,0c-0.3-0.3-0.31-0.79,0-1.1l3.9-3.92C745.22,795.59,745.42,795.5,745.62,795.5z"
					/>
			</g>
		</g>
	</g>
</g>
<g>
	<g>
		<g>
			<g>
				<path class="st7" d="M745.62,727.85c0.43,0,0.78,0.35,0.78,0.78l0.04,15.48c0,0.43-0.35,0.78-0.78,0.78s-0.78-0.35-0.78-0.78
					l-0.04-15.48C744.85,728.2,745.19,727.85,745.62,727.85z"/>
			</g>
		</g>
		<g>
			<g>
				<path class="st7" d="M745.62,727.85c0.21,0,0.4,0.08,0.55,0.23l3.91,3.89c0.3,0.3,0.31,0.79,0,1.1c-0.3,0.3-0.79,0.31-1.1,0
					l-3.36-3.34l-3.35,3.37c-0.3,0.3-0.79,0.31-1.1,0s-0.31-0.79,0-1.1l3.9-3.92C745.22,727.93,745.42,727.85,745.62,727.85z"/>
			</g>
		</g>
	</g>
</g>
<g>
	<g>
		<g>
			<g>
				<path class="st7" d="M690.96,904.19c0.2,0.38,0.05,0.85-0.33,1.05l-13.74,7.13c-0.38,0.2-0.85,0.05-1.05-0.33
					c-0.2-0.38-0.05-0.85,0.33-1.05l13.74-7.13C690.29,903.66,690.76,903.81,690.96,904.19z"/>
			</g>
		</g>
		<g>
			<g>
				<path class="st7" d="M690.96,904.19c0.09,0.18,0.11,0.4,0.05,0.59l-1.66,5.26c-0.13,0.41-0.57,0.64-0.98,0.51
					c-0.41-0.13-0.64-0.57-0.51-0.98l1.43-4.52l-4.53-1.44c-0.41-0.13-0.64-0.57-0.51-0.98c0.13-0.41,0.57-0.64,0.98-0.51l5.27,1.67
					C690.7,903.87,690.86,904,690.96,904.19z"/>
			</g>
		</g>
	</g>
</g>
<g>
	<circle class="st27" cx="1157.64" cy="718.83" r="9.36"/>
</g>
<g id="XMLID_445_">
	<g>
		<path class="st30" d="M1156.16,722.27c-1.4-0.58-2.38-1.95-2.38-3.56c0-2.12,1.72-3.85,3.85-3.85c2.12,0,3.85,1.72,3.85,3.85
			c0,1.61-0.98,2.98-2.38,3.56c-0.27,0.11-0.55,0.19-0.84,0.24l0-0.01l0.37-1.79c0.02-0.06,0-0.13-0.04-0.18
			c-0.04-0.05-0.1-0.08-0.16-0.08h-1.58c-0.06,0-0.12,0.03-0.16,0.08c-0.04,0.05-0.05,0.11-0.04,0.18l0.37,1.79l0,0.02
			C1156.72,722.46,1156.43,722.38,1156.16,722.27z"/>
		<path class="st11" d="M1159.09,722.38v1.19c0,0.47-0.23,0.89-0.57,1.15c-0.25,0.19-0.56,0.25-0.9,0.25c-0.34,0-0.65-0.06-0.9-0.25
			c-0.34-0.27-0.57-0.68-0.57-1.15v-1.19c0,0.47,0.23,0.89,0.57,1.15c0.25,0.19,0.56,0.25,0.9,0.25c0.34,0,0.65-0.06,0.9-0.25
			C1158.87,723.27,1159.09,722.85,1159.09,722.38z"/>
		<path class="st30" d="M1158.59,720.53c0.04,0.05,0.05,0.11,0.04,0.18l-0.37,1.79l0,0.01c-0.2,0.03-0.41,0.05-0.63,0.05
			c-0.21,0-0.42-0.02-0.62-0.05l0-0.02l-0.37-1.79c-0.02-0.06,0-0.13,0.04-0.18c0.04-0.05,0.1-0.08,0.16-0.08h1.58
			C1158.49,720.45,1158.55,720.48,1158.59,720.53z"/>
		<path class="st11" d="M1159.09,722.38c0,0.47-0.23,0.89-0.57,1.15c-0.25,0.19-0.56,0.25-0.9,0.25c-0.34,0-0.65-0.06-0.9-0.25
			c-0.34-0.27-0.57-0.68-0.57-1.15v-0.12c0.27,0.11,0.55,0.19,0.85,0.24c0.2,0.03,0.41,0.05,0.62,0.05c0.21,0,0.42-0.02,0.63-0.05
			c0.29-0.05,0.57-0.13,0.84-0.24l0,0V722.38z"/>
	</g>
	<g>
		<line class="st31" x1="1155.3" y1="714.3" x2="1154.81" y2="713.45"/>
		<line class="st31" x1="1157.64" y1="713.67" x2="1157.64" y2="712.69"/>
		<line class="st31" x1="1159.97" y1="714.3" x2="1160.46" y2="713.45"/>
		<line class="st31" x1="1161.68" y1="716.01" x2="1162.53" y2="715.51"/>
		<line class="st31" x1="1153.59" y1="716" x2="1152.74" y2="715.51"/>
		<path class="st31" d="M1159.09,722.27v0.11v1.19c0,0.47-0.23,0.89-0.57,1.15c-0.25,0.19-0.56,0.25-0.9,0.25
			c-0.34,0-0.65-0.06-0.9-0.25c-0.34-0.27-0.57-0.68-0.57-1.15v-1.19v-0.12v0"/>
		<path class="st31" d="M1156.16,722.38c0,0.47,0.23,0.89,0.57,1.15c0.25,0.19,0.56,0.25,0.9,0.25c0.34,0,0.65-0.06,0.9-0.25
			c0.34-0.27,0.57-0.68,0.57-1.15"/>
		<path class="st31" d="M1156.16,722.27c-1.4-0.58-2.38-1.95-2.38-3.56c0-2.12,1.72-3.85,3.85-3.85c2.12,0,3.85,1.72,3.85,3.85
			c0,1.61-0.98,2.98-2.38,3.56c-0.27,0.11-0.55,0.19-0.84,0.24c-0.2,0.03-0.41,0.05-0.63,0.05c-0.21,0-0.42-0.02-0.62-0.05
			C1156.72,722.46,1156.43,722.38,1156.16,722.27z"/>
		<path class="st31" d="M1157.02,722.49l-0.37-1.79c-0.02-0.06,0-0.13,0.04-0.18c0.04-0.05,0.1-0.08,0.16-0.08h1.58
			c0.06,0,0.12,0.03,0.16,0.08c0.04,0.05,0.05,0.11,0.04,0.18l-0.37,1.79"/>
	</g>
</g>
<circle class="st3" cx="988.19" cy="685.43" r="40"/>
<text transform="matrix(1 0 0 1 960.9879 676.7713)"><tspan x="0" y="0" class="st4 st5 st6">levantamento e</tspan><tspan x="1.17" y="11" class="st4 st5 st6">priorização de </tspan><tspan x="6.6" y="22" class="st4 st5 st6">indicadores</tspan></text>
<g>
	<circle class="st23" cx="960.1" cy="643.63" r="7"/>
	<g>
		<text transform="matrix(1 -4.410000e-03 4.410000e-03 1 957.788 646.3232)" class="st11 st12 st13">D</text>
	</g>
</g>
<g>
	<circle class="st32" cx="947.45" cy="656.28" r="7"/>
	<text transform="matrix(0.9991 0.0435 -0.0435 0.9991 942.2054 658.8549)" class="st11 st12 st13">MR</text>
</g>
<g>
	<circle class="st14" cx="648.04" cy="1153.85" r="7"/>
	<text transform="matrix(1 -8.890000e-03 8.890000e-03 1 643.6229 1156.5094)" class="st11 st12 st13">PP</text>
</g>
<g>
	<circle class="st23" cx="661.18" cy="1120.22" r="7"/>
	<g>
		<text transform="matrix(1 -4.410000e-03 4.410000e-03 1 658.8671 1122.918)" class="st11 st12 st13">D</text>
	</g>
</g>
<g>
	<circle class="st32" cx="651.59" cy="1135.94" r="7"/>
	<text transform="matrix(0.9991 0.0435 -0.0435 0.9991 646.3414 1138.5194)" class="st11 st12 st13">MR</text>
</g>
<g>
	<circle class="st27" cx="996.65" cy="633.46" r="9.36"/>
	<g>
		<path class="st33" d="M1002.03,633.46c0,2.15-1.26,4.01-3.09,4.86c-0.19,0.09-0.4,0.18-0.6,0.24c-0.53,0.18-1.11,0.28-1.7,0.28
			c-2.97,0-5.38-2.4-5.38-5.38c0-2.97,2.41-5.38,5.38-5.38c0.64,0,1.26,0.11,1.83,0.32c0.16,0.06,0.32,0.13,0.47,0.2
			C1000.77,629.46,1002.03,631.31,1002.03,633.46z"/>
		<pattern  id="SVGID_1_" xlink:href="#_x31_0_lpi_30_x25_" patternTransform="matrix(0.1618 0 0 0.1618 -7286.9331 -5490.3032)">
		</pattern>
		<path class="st34" d="M1002.03,633.46c0,2.15-1.44,4.38-3.56,5.16c-1.82-0.86-2.6-3.01-2.6-5.16c0-2.15,0.78-4.24,2.6-5.11
			C1000.52,629.24,1002.03,631.31,1002.03,633.46z"/>
	</g>
</g>
<circle class="st27" cx="598.14" cy="972.9" r="9.36"/>
<g id="XMLID_444_">
	<g>
		<path class="st30" d="M596.66,976.33c-1.4-0.58-2.38-1.95-2.38-3.56c0-2.12,1.72-3.85,3.85-3.85c2.12,0,3.85,1.72,3.85,3.85
			c0,1.61-0.98,2.98-2.38,3.56c-0.27,0.11-0.55,0.19-0.84,0.24l0-0.01l0.37-1.79c0.02-0.06,0-0.13-0.04-0.18
			c-0.04-0.05-0.1-0.08-0.16-0.08h-1.58c-0.06,0-0.12,0.03-0.16,0.08c-0.04,0.05-0.05,0.11-0.04,0.18l0.37,1.79l0,0.02
			C597.22,976.52,596.93,976.44,596.66,976.33z"/>
		<path class="st11" d="M599.03,977.6c0.34-0.27,0.57-0.68,0.57-1.15v1.19c0,0.47-0.23,0.89-0.57,1.15
			c-0.25,0.19-0.56,0.25-0.9,0.25c-0.34,0-0.65-0.06-0.9-0.25c-0.34-0.27-0.57-0.68-0.57-1.15v-1.19c0,0.47,0.23,0.89,0.57,1.15
			c0.25,0.19,0.56,0.25,0.9,0.25C598.47,977.85,598.78,977.79,599.03,977.6z"/>
		<path class="st30" d="M599.09,974.59c0.04,0.05,0.05,0.11,0.04,0.18l-0.37,1.79l0,0.01c-0.2,0.03-0.41,0.05-0.63,0.05
			c-0.21,0-0.41-0.02-0.62-0.05l0-0.02l-0.37-1.79c-0.02-0.06,0-0.13,0.04-0.18c0.04-0.05,0.1-0.08,0.16-0.08h1.58
			C598.99,974.51,599.05,974.54,599.09,974.59z"/>
		<path class="st11" d="M599.6,976.45c0,0.47-0.23,0.89-0.57,1.15c-0.25,0.19-0.56,0.25-0.9,0.25c-0.34,0-0.65-0.06-0.9-0.25
			c-0.34-0.27-0.57-0.68-0.57-1.15v-0.12c0.27,0.11,0.55,0.19,0.85,0.24c0.2,0.03,0.41,0.05,0.62,0.05c0.21,0,0.42-0.02,0.63-0.05
			c0.29-0.05,0.57-0.13,0.84-0.24l0,0V976.45z"/>
	</g>
	<g>
		<line class="st31" x1="595.8" y1="968.36" x2="595.31" y2="967.51"/>
		<line class="st31" x1="598.14" y1="967.74" x2="598.14" y2="966.75"/>
		<line class="st31" x1="600.47" y1="968.36" x2="600.96" y2="967.51"/>
		<line class="st31" x1="602.18" y1="970.07" x2="603.03" y2="969.58"/>
		<line class="st31" x1="594.1" y1="970.07" x2="593.24" y2="969.58"/>
		<path class="st31" d="M599.6,976.33v0.11v1.19c0,0.47-0.23,0.89-0.57,1.15c-0.25,0.19-0.56,0.25-0.9,0.25
			c-0.34,0-0.65-0.06-0.9-0.25c-0.34-0.27-0.57-0.68-0.57-1.15v-1.19v-0.12v0"/>
		<path class="st31" d="M596.66,976.45c0,0.47,0.23,0.89,0.57,1.15c0.25,0.19,0.56,0.25,0.9,0.25c0.34,0,0.65-0.06,0.9-0.25
			c0.34-0.27,0.57-0.68,0.57-1.15"/>
		<path class="st31" d="M596.66,976.33c-1.4-0.58-2.38-1.95-2.38-3.56c0-2.12,1.72-3.85,3.85-3.85c2.12,0,3.85,1.72,3.85,3.85
			c0,1.61-0.98,2.98-2.38,3.56c-0.27,0.11-0.55,0.19-0.84,0.24c-0.2,0.03-0.41,0.05-0.63,0.05c-0.21,0-0.41-0.02-0.62-0.05
			C597.22,976.52,596.93,976.44,596.66,976.33z"/>
		<path class="st31" d="M597.52,976.55l-0.37-1.79c-0.02-0.06,0-0.13,0.04-0.18c0.04-0.05,0.1-0.08,0.16-0.08h1.58
			c0.06,0,0.12,0.03,0.16,0.08c0.04,0.05,0.05,0.11,0.04,0.18l-0.37,1.79"/>
	</g>
</g>
<g>
	<text transform="matrix(1 0 0 1 154.3272 282.0262)"><tspan x="0" y="0" class="st17 st35 st36">fluxo de</tspan><tspan x="0" y="70" class="st17 st35 st36">transformação</tspan></text>
	<g>
		<text transform="matrix(1 0 0 1 157.9019 389.8227)" class="st37 st38 st39">desenhado pelo</text>
	</g>
	<g id="XMLID_421_">
		<g id="XMLID_435_">
			<path id="XMLID_443_" class="st40" d="M377.63,387.21v-1.44h1.83c0.27,0,0.5-0.02,0.67-0.07c0.17-0.04,0.31-0.12,0.41-0.22
				c0.1-0.1,0.17-0.23,0.21-0.38c0.04-0.16,0.06-0.34,0.06-0.56v-4.88h1.68v4.96c0,0.48-0.05,0.88-0.14,1.21
				c-0.09,0.33-0.25,0.59-0.47,0.8c-0.22,0.2-0.52,0.35-0.89,0.44c-0.37,0.09-0.84,0.14-1.4,0.14H377.63z"/>
			<path id="XMLID_440_" class="st40" d="M375.98,382.05c0-0.2-0.02-0.36-0.07-0.48c-0.04-0.12-0.12-0.22-0.22-0.29
				c-0.1-0.07-0.25-0.11-0.43-0.13c-0.18-0.02-0.41-0.03-0.68-0.03h-4.11v2.29h4.11c0.27,0,0.5-0.01,0.68-0.03
				c0.18-0.02,0.32-0.07,0.43-0.13c0.11-0.07,0.18-0.16,0.23-0.29c0.04-0.12,0.07-0.29,0.07-0.5V382.05z M374.87,387.21l-4.39-2.73
				v2.73h-1.66v-7.51h5.88c0.53,0,0.98,0.03,1.35,0.1c0.37,0.07,0.68,0.18,0.92,0.35c0.24,0.17,0.41,0.4,0.52,0.69
				c0.11,0.29,0.17,0.66,0.17,1.11v0.52c0,0.43-0.06,0.79-0.18,1.07c-0.12,0.28-0.3,0.51-0.54,0.67c-0.25,0.17-0.56,0.28-0.93,0.35
				c-0.37,0.07-0.82,0.1-1.33,0.1h-1.32l4.4,2.54H374.87z"/>
			<path id="XMLID_437_" class="st40" d="M366.83,382.19c0-0.4-0.09-0.68-0.26-0.83c-0.17-0.15-0.48-0.22-0.93-0.22h-4.29v2.56h4.31
				c0.44,0,0.74-0.07,0.91-0.2c0.17-0.14,0.25-0.4,0.25-0.8V382.19z M361.35,385.06v2.15h-1.67v-7.51h6.01
				c0.54,0,0.98,0.04,1.34,0.13c0.36,0.08,0.65,0.22,0.87,0.42c0.22,0.19,0.38,0.45,0.47,0.75c0.09,0.31,0.14,0.68,0.14,1.12v0.65
				c0,0.45-0.04,0.82-0.13,1.11c-0.09,0.29-0.24,0.53-0.46,0.7c-0.22,0.18-0.5,0.3-0.86,0.37c-0.36,0.07-0.81,0.1-1.36,0.1H361.35z"
				/>
			<path id="XMLID_436_" class="st40" d="M357.58,387.21v-4.98l-3.69,4.82c-0.17,0.21-0.42,0.32-0.74,0.32
				c-0.33,0-0.57-0.11-0.74-0.32l-3.68-4.82v4.98h-1.53v-7.04c0-0.24,0.09-0.41,0.26-0.52c0.17-0.11,0.39-0.17,0.65-0.17
				c0.2,0,0.36,0.03,0.48,0.08c0.12,0.06,0.23,0.15,0.32,0.27l4.27,5.66l4.3-5.66c0.1-0.13,0.2-0.22,0.3-0.27
				c0.11-0.06,0.26-0.08,0.45-0.08c0.26,0,0.47,0.06,0.65,0.17c0.17,0.11,0.26,0.28,0.26,0.52v7.04H357.58z"/>
		</g>
		<rect id="XMLID_434_" x="342.76" y="376.76" class="st40" width="0.31" height="13.37"/>
		<g id="XMLID_422_">
			<path id="XMLID_432_" class="st40" d="M288.45,377.12h2.67l6.17,7.94v-7.94h2.86v12.83h-2.47l-6.38-8.2v8.2h-2.86V377.12z"/>
			<path id="XMLID_430_" class="st40" d="M315.53,377.12h3.16l3.4,8.99l3.4-8.99h3.08l-5.26,12.75h-2.53L315.53,377.12z"/>
			<path id="XMLID_428_" class="st40" d="M339.02,389.87h-3.16l-3.4-8.99l-3.4,8.99h-3.08l5.26-12.75h2.53L339.02,389.87z"/>
			<rect id="XMLID_427_" x="283.4" y="377.12" class="st40" width="2.9" height="12.83"/>
			<path id="XMLID_426_" class="st41" d="M310.13,383.46c0,0.73-0.59,1.33-1.33,1.33c-0.73,0-1.33-0.59-1.33-1.33
				c0-0.73,0.59-1.33,1.33-1.33C309.53,382.13,310.13,382.73,310.13,383.46z"/>
			<path id="XMLID_423_" class="st41" d="M308.8,376.34c-3.93,0-7.12,3.19-7.12,7.12c0,3.93,3.19,7.12,7.12,7.12
				c3.93,0,7.12-3.19,7.12-7.12C315.92,379.53,312.73,376.34,308.8,376.34z M308.8,387.88c-2.44,0-4.42-1.98-4.42-4.42
				c0-2.44,1.98-4.42,4.42-4.42c2.44,0,4.42,1.98,4.42,4.42C313.22,385.9,311.24,387.88,308.8,387.88z"/>
		</g>
	</g>
</g>
<g>
	<circle class="st3" cx="744.8" cy="683.95" r="26.21"/>
</g>
<line class="st15" x1="807.61" y1="591.49" x2="807.61" y2="710.84"/>
<text transform="matrix(1 0 0 1 813.6539 599.9539)" class="st16 st5 st20">priorização</text>
<g id="XMLID_420_">
	<g>
		<path class="st4" d="M755.8,677.06v13.78c0,3.03-1.24,5.78-3.23,7.77c-1.99,1.99-4.74,3.23-7.77,3.23c-6.05,0-11-4.95-11-11
			v-13.78c0-6.05,4.95-11,11-11C750.85,666.05,755.8,671.01,755.8,677.06z M750.27,677.08c0-3.02-2.45-5.47-5.47-5.47
			s-5.47,2.45-5.47,5.47s2.45,5.48,5.47,5.48S750.27,680.1,750.27,677.08z M750.27,692.42c0-3.02-2.45-5.47-5.47-5.47
			s-5.47,2.45-5.47,5.47s2.45,5.47,5.47,5.47S750.27,695.45,750.27,692.42z"/>
		<path class="st42" d="M744.8,671.6c3.02,0,5.47,2.45,5.47,5.47s-2.45,5.48-5.47,5.48s-5.47-2.45-5.47-5.48
			S741.77,671.6,744.8,671.6z M747.3,676.75c0.17-0.17,0.17-0.45,0-0.62l-2.19-2.19c-0.01-0.01-0.02-0.02-0.03-0.03
			c-0.03-0.03-0.07-0.05-0.11-0.07c-0.01-0.01-0.03-0.01-0.04-0.01c-0.01,0-0.02-0.01-0.03-0.01c-0.03-0.01-0.07-0.01-0.1-0.01
			c-0.03,0-0.07,0-0.1,0.01c-0.01,0-0.02,0.01-0.03,0.01c-0.01,0-0.03,0.01-0.04,0.01c-0.03,0.01-0.05,0.03-0.07,0.04
			c-0.02,0.02-0.05,0.03-0.07,0.05l-2.2,2.2c-0.17,0.17-0.17,0.45,0,0.62c0.17,0.17,0.45,0.17,0.62,0l1.45-1.45v4.95
			c0,0.24,0.2,0.44,0.44,0.44c0.24,0,0.44-0.2,0.44-0.44v-4.95l1.45,1.45C746.85,676.92,747.13,676.92,747.3,676.75z"/>
		<path class="st14" d="M744.8,686.95c3.02,0,5.47,2.45,5.47,5.47s-2.45,5.47-5.47,5.47s-5.47-2.45-5.47-5.47
			S741.77,686.95,744.8,686.95z M748.23,692.43c0-0.03,0-0.07-0.01-0.1c0-0.01-0.01-0.02-0.01-0.03c0-0.01-0.01-0.03-0.01-0.04
			c-0.01-0.01-0.01-0.03-0.02-0.04c-0.01-0.02-0.02-0.03-0.03-0.04c-0.01-0.02-0.03-0.04-0.05-0.06c-0.01-0.01-0.02-0.02-0.03-0.03
			l-2.17-2.17c-0.17-0.17-0.45-0.17-0.62,0c-0.17,0.17-0.17,0.45,0,0.62l1.45,1.45h-4.95c-0.24,0-0.44,0.2-0.44,0.44
			c0,0.24,0.2,0.44,0.44,0.44h4.94l-1.44,1.44c-0.17,0.17-0.17,0.45,0,0.62c0.17,0.17,0.45,0.17,0.62,0l2.16-2.16l0.03-0.03
			C748.19,692.66,748.23,692.54,748.23,692.43z"/>
		<path class="st43" d="M748.22,692.33c0-0.01-0.01-0.02-0.01-0.03C748.22,692.31,748.22,692.32,748.22,692.33z"/>
		<path class="st43" d="M748.22,692.33c0.01,0.03,0.01,0.06,0.01,0.1c0,0.12-0.05,0.23-0.13,0.31l-0.03,0.03
			c-0.08,0.06-0.17,0.1-0.28,0.1h-1.06l0.44-0.44l-0.44-0.44h1.06c0.11,0,0.2,0.04,0.28,0.1l0.03,0.03
			c0.02,0.02,0.04,0.04,0.05,0.06c0.01,0.01,0.02,0.03,0.03,0.04c0.01,0.01,0.01,0.02,0.02,0.04c0.01,0.01,0.01,0.03,0.01,0.04
			C748.22,692.31,748.22,692.32,748.22,692.33z"/>
		<path class="st43" d="M748.18,692.22c0.01,0.01,0.01,0.02,0.02,0.04C748.19,692.25,748.19,692.24,748.18,692.22z"/>
		<path class="st43" d="M748.11,692.12c0.02,0.02,0.04,0.04,0.05,0.06C748.14,692.16,748.12,692.14,748.11,692.12z"/>
		<path class="st43" d="M748.08,692.09c0.01,0.01,0.02,0.02,0.03,0.03L748.08,692.09z"/>
		<path class="st43" d="M748.08,692.77l-2.16,2.16c-0.17,0.17-0.45,0.17-0.62,0c-0.17-0.17-0.17-0.45,0-0.62l1.44-1.44h1.06
			C747.9,692.87,748,692.83,748.08,692.77z"/>
		<path class="st43" d="M745.91,689.92l2.17,2.17c-0.08-0.06-0.17-0.1-0.28-0.1h-1.06l-1.45-1.45c-0.17-0.17-0.17-0.45,0-0.62
			C745.46,689.75,745.73,689.75,745.91,689.92z"/>
		<path class="st43" d="M747.3,676.13c0.17,0.17,0.17,0.45,0,0.62c-0.17,0.17-0.45,0.17-0.62,0l-1.45-1.45v-1.06
			c0-0.12-0.05-0.23-0.13-0.31L747.3,676.13z"/>
		<path class="st43" d="M747.18,692.43l-0.44,0.44h-4.94c-0.24,0-0.44-0.2-0.44-0.44c0-0.24,0.2-0.44,0.44-0.44h4.95L747.18,692.43z
			"/>
		<path class="st43" d="M745.24,675.3v4.95c0,0.24-0.19,0.44-0.44,0.44c-0.24,0-0.44-0.2-0.44-0.44v-4.95l0.44-0.44L745.24,675.3z"
			/>
		<path class="st43" d="M744.97,673.84c0.04,0.02,0.08,0.04,0.11,0.07C745.04,673.88,745.01,673.86,744.97,673.84z"/>
		<path class="st43" d="M744.93,673.83c-0.01,0-0.02-0.01-0.03-0.01C744.91,673.82,744.92,673.82,744.93,673.83z"/>
		<path class="st43" d="M744.7,673.82c0.03-0.01,0.06-0.01,0.1-0.01c0.04,0,0.07,0.01,0.1,0.01c0.01,0,0.02,0,0.03,0.01
			c0.01,0,0.03,0.01,0.04,0.01c0.04,0.02,0.07,0.04,0.11,0.07c0.01,0.01,0.02,0.02,0.03,0.03c0.08,0.08,0.13,0.19,0.13,0.31v1.06
			l-0.44-0.44l-0.44,0.44v-1.06c0-0.12,0.05-0.23,0.13-0.31c0.02-0.02,0.04-0.04,0.07-0.05c0.02-0.02,0.05-0.03,0.07-0.04
			c0.01-0.01,0.03-0.01,0.04-0.01C744.68,673.82,744.69,673.82,744.7,673.82z"/>
		<path class="st43" d="M744.67,673.83c0.01,0,0.02-0.01,0.03-0.01C744.69,673.82,744.68,673.82,744.67,673.83z"/>
		<path class="st43" d="M744.63,673.84c-0.03,0.01-0.05,0.03-0.07,0.04C744.58,673.87,744.6,673.85,744.63,673.84z"/>
		<path class="st43" d="M742.29,676.13l2.2-2.2c-0.08,0.08-0.13,0.19-0.13,0.31v1.06l-1.45,1.45c-0.17,0.17-0.45,0.17-0.62,0
			C742.12,676.58,742.12,676.31,742.29,676.13z"/>
	</g>
	<g>
		<path class="st44" d="M744.8,666.05c-6.05,0-11,4.95-11,11v13.78c0,6.05,4.95,11,11,11c3.03,0,5.78-1.24,7.77-3.23
			c1.99-1.99,3.23-4.74,3.23-7.77v-13.78C755.8,671.01,750.85,666.05,744.8,666.05z"/>
		<circle class="st44" cx="744.8" cy="677.08" r="5.47"/>
		<circle class="st44" cx="744.8" cy="692.42" r="5.47"/>
		<path class="st44" d="M737.57,677.08c0-3.99,3.23-7.22,7.22-7.22c3.99,0,7.22,3.23,7.22,7.22"/>
		<path class="st44" d="M737.57,692.42c0-3.99,3.23-7.23,7.22-7.23c3.99,0,7.22,3.24,7.22,7.23"/>
	</g>
</g>
<rect x="1241.17" y="1226.91" class="st45" width="205.79" height="175.88"/>
<text transform="matrix(1 0 0 1 1241.167 1220.9122)" class="st25 st46 st20">aprendizados</text>
<g>
	<g>
		<circle class="st23" cx="1278.1" cy="1260.49" r="7"/>
		<g>
			<text transform="matrix(1 0 0 1 1275.8092 1263.1539)" class="st11 st12 st13">D</text>
		</g>
	</g>
	<g>
		<circle class="st14" cx="1278.1" cy="1360.66" r="7"/>
		<text transform="matrix(1 0 0 1 1273.6881 1363.2645)" class="st11 st12 st13">PP</text>
	</g>
	<g>
		<circle class="st14" cx="1278.1" cy="1300.48" r="7"/>
		<circle class="st25" cx="1278.1" cy="1300.49" r="7"/>
		<text transform="matrix(1 0 0 1 1273.5475 1303.0966)" class="st11 st12 st13">CC</text>
	</g>
	<g>
		<circle class="st26" cx="1278.11" cy="1320.46" r="7"/>
		<text transform="matrix(1 0 0 1 1273.5314 1323.1952)" class="st11 st12 st13">CD</text>
	</g>
	<g>
		<circle class="st10" cx="1278.12" cy="1340.37" r="7"/>
		<text transform="matrix(1 0 0 1 1273.7335 1342.9642)" class="st11 st12 st13">SD</text>
	</g>
	<g>
		<circle class="st32" cx="1278.11" cy="1280.48" r="7"/>
		<text transform="matrix(1 0 0 1 1272.8937 1283.215)" class="st11 st12 st13">MR</text>
	</g>
	<rect x="1292.39" y="1257.05" class="st0" width="145.93" height="119.17"/>
	<text transform="matrix(1 0 0 1 1292.3917 1263.8947)"><tspan x="0" y="0" class="st47 st5 st6">design</tspan><tspan x="0" y="19.98" class="st47 st5 st6">mobilização de rede</tspan><tspan x="0" y="39.95" class="st47 st5 st6">campanhas de comunicação</tspan><tspan x="0" y="59.93" class="st47 st5 st6">ciência de dados</tspan><tspan x="0" y="79.9" class="st47 st5 st6">soluções digitais</tspan><tspan x="0" y="99.88" class="st47 st5 st6">políticas públicas informadas</tspan><tspan x="0" y="111.88" class="st47 st5 st6">por evidência</tspan></text>
</g>
<rect x="1479.8" y="1226.91" class="st48" width="206.83" height="175.88"/>
<text transform="matrix(1 0 0 1 1479.8029 1221.6222)" class="st25 st46 st20">inovação aberta</text>
<circle class="st27" cx="1519.11" cy="1262.86" r="9.36"/>
<text transform="matrix(1.0012 0 0 1 1534.0284 1265.4806)" class="st47 st5 st6">inovação aberta</text>
<rect x="1509.74" y="1280.87" class="st0" width="146.01" height="82.89"/>
<text transform="matrix(1.0012 0 0 1 1509.7413 1287.7174)"><tspan x="0" y="0" class="st47 st38 st6">Sempre que houver este símbolo, o </tspan><tspan x="0" y="12" class="st47 st38 st6">processo poderá ser aberto para </tspan><tspan x="0" y="24" class="st47 st38 st6">participação de atores externos nas </tspan><tspan x="0" y="36" class="st47 st38 st6">fases subsequentes, por meio de </tspan><tspan x="0" y="48" class="st47 st38 st6">encomendas tecnológicas, hackathons </tspan><tspan x="0" y="60" class="st47 st38 st6">ou concursos.</tspan></text>
<rect x="1719.47" y="1226.91" class="st48" width="206.83" height="175.88"/>
<text transform="matrix(1 0 0 1 1720.1378 1221.6222)" class="st25 st46 st20">LAdo sombrio</text>
<g>
	<text transform="matrix(1.0012 0 0 1 1774.3634 1265.4801)" class="st47 st5 st6">lado sombrio</text>
	<rect x="1750.08" y="1280.87" class="st0" width="146.01" height="104.29"/>
	<text transform="matrix(1.0012 0 0 1 1750.0763 1287.7169)"><tspan x="0" y="0" class="st47 st38 st6">A priorização de indicadores começa </tspan><tspan x="0" y="12" class="st47 st38 st6">pelo “lado sombrio” – um processo </tspan><tspan x="0" y="24" class="st47 st38 st6">colaborativo entre especialistas para </tspan><tspan x="0" y="36" class="st47 st38 st6">imaginar a rotina do gestor mais </tspan><tspan x="0" y="48" class="st47 st38 st6">ineficiente ou mais corrupto possível. </tspan><tspan x="0" y="60" class="st47 st38 st6">Como ele esconderia ineficiências ou </tspan><tspan x="0" y="72" class="st47 st38 st6">desvios de recursos? Quais dados, e em </tspan><tspan x="0" y="84" class="st47 st38 st6">qual ordem, precisaríamos enxergar para </tspan><tspan x="0" y="96" class="st47 st38 st6">evitar o pior?</tspan></text>
	<g>
		<circle class="st27" cx="1759.43" cy="1262.86" r="9.36"/>
		<g>
			<path class="st33" d="M1764.82,1262.85c0,2.15-1.26,4.01-3.09,4.86c-0.19,0.09-0.4,0.18-0.6,0.24c-0.53,0.18-1.11,0.28-1.7,0.28
				c-2.97,0-5.38-2.4-5.38-5.38c0-2.97,2.41-5.38,5.38-5.38c0.64,0,1.26,0.11,1.82,0.32c0.16,0.06,0.32,0.13,0.47,0.2
				C1763.55,1258.85,1764.82,1260.7,1764.82,1262.85z"/>
			<pattern  id="SVGID_2_" xlink:href="#_x31_0_lpi_30_x25_" patternTransform="matrix(0.1618 0 0 0.1618 -7246.2192 -5280.1777)">
			</pattern>
			<path class="st49" d="M1764.82,1262.85c0,2.15-1.44,4.38-3.56,5.16c-1.82-0.86-2.6-3.01-2.6-5.16c0-2.15,0.78-4.24,2.6-5.11
				C1763.3,1258.63,1764.82,1260.7,1764.82,1262.85z"/>
		</g>
	</g>
</g>
<g id="XMLID_419_">
	<g>
		<path class="st30" d="M1517.63,1266.29c-1.4-0.58-2.38-1.95-2.38-3.56c0-2.12,1.72-3.85,3.85-3.85c2.12,0,3.85,1.72,3.85,3.85
			c0,1.61-0.98,2.98-2.38,3.56c-0.27,0.11-0.55,0.19-0.84,0.24l0-0.01l0.37-1.79c0.02-0.06,0-0.13-0.04-0.18
			c-0.04-0.05-0.1-0.08-0.16-0.08h-1.58c-0.06,0-0.12,0.03-0.16,0.08c-0.04,0.05-0.05,0.11-0.04,0.18l0.37,1.79l0,0.02
			C1518.19,1266.48,1517.9,1266.4,1517.63,1266.29z"/>
		<path class="st11" d="M1520.56,1266.41v1.19c0,0.47-0.22,0.89-0.57,1.15c-0.25,0.19-0.56,0.25-0.9,0.25
			c-0.34,0-0.65-0.06-0.9-0.25c-0.35-0.27-0.57-0.68-0.57-1.15v-1.19c0,0.47,0.23,0.89,0.57,1.15c0.25,0.19,0.56,0.25,0.9,0.25
			c0.34,0,0.65-0.06,0.9-0.25C1520.34,1267.29,1520.56,1266.87,1520.56,1266.41z"/>
		<path class="st30" d="M1520.06,1264.55c0.04,0.05,0.05,0.11,0.04,0.18l-0.37,1.79l0,0.01c-0.2,0.03-0.41,0.05-0.63,0.05
			c-0.21,0-0.42-0.02-0.62-0.05l0-0.02l-0.37-1.79c-0.02-0.06,0-0.13,0.04-0.18c0.04-0.05,0.1-0.08,0.16-0.08h1.58
			C1519.96,1264.47,1520.02,1264.5,1520.06,1264.55z"/>
		<path class="st11" d="M1519.73,1266.53c0.29-0.05,0.57-0.13,0.84-0.24l0,0v0.11c0,0.47-0.22,0.89-0.57,1.15
			c-0.25,0.19-0.56,0.25-0.9,0.25c-0.34,0-0.65-0.06-0.9-0.25c-0.35-0.27-0.57-0.68-0.57-1.15v-0.12c0.27,0.11,0.55,0.19,0.85,0.24
			c0.2,0.03,0.41,0.05,0.62,0.05C1519.31,1266.58,1519.52,1266.56,1519.73,1266.53z"/>
	</g>
	<g>
		<line class="st31" x1="1516.77" y1="1258.32" x2="1516.28" y2="1257.47"/>
		<line class="st31" x1="1519.11" y1="1257.7" x2="1519.11" y2="1256.71"/>
		<line class="st31" x1="1521.44" y1="1258.32" x2="1521.93" y2="1257.47"/>
		<line class="st31" x1="1523.15" y1="1260.03" x2="1524" y2="1259.54"/>
		<line class="st31" x1="1515.06" y1="1260.03" x2="1514.21" y2="1259.54"/>
		<path class="st31" d="M1520.56,1266.29v0.11v1.19c0,0.47-0.22,0.89-0.57,1.15c-0.25,0.19-0.56,0.25-0.9,0.25
			c-0.34,0-0.65-0.06-0.9-0.25c-0.35-0.27-0.57-0.68-0.57-1.15v-1.19v-0.12v0"/>
		<path class="st31" d="M1517.63,1266.41c0,0.47,0.23,0.89,0.57,1.15c0.25,0.19,0.56,0.25,0.9,0.25c0.34,0,0.65-0.06,0.9-0.25
			c0.34-0.27,0.57-0.68,0.57-1.15"/>
		<path class="st31" d="M1517.63,1266.29c-1.4-0.58-2.38-1.95-2.38-3.56c0-2.12,1.72-3.85,3.85-3.85c2.12,0,3.85,1.72,3.85,3.85
			c0,1.61-0.98,2.98-2.38,3.56c-0.27,0.11-0.55,0.19-0.84,0.24c-0.2,0.03-0.41,0.05-0.63,0.05c-0.21,0-0.42-0.02-0.62-0.05
			C1518.19,1266.48,1517.9,1266.4,1517.63,1266.29z"/>
		<path class="st31" d="M1518.49,1266.51l-0.37-1.79c-0.02-0.06,0-0.13,0.04-0.18c0.04-0.05,0.1-0.08,0.16-0.08h1.58
			c0.06,0,0.12,0.03,0.16,0.08c0.04,0.05,0.05,0.11,0.04,0.18l-0.37,1.79"/>
	</g>
</g>
<g>
	<path class="st8" d="M1138.51,955.86c0-80.38-65.16-145.54-145.54-145.54c-41.42,0-75,33.58-75,75s33.58,75,75.9,75h198.91"/>
	<g>
		<g>
			<path class="st22" d="M943.1,941.27c-0.28,0.26-0.72,0.24-0.98-0.04l-9.31-10.19c-0.26-0.28-0.24-0.72,0.04-0.98
				c0.28-0.26,0.72-0.24,0.98,0.04l9.31,10.19C943.4,940.57,943.38,941.01,943.1,941.27z"/>
		</g>
		<g>
			<path class="st22" d="M943.1,941.27c-0.14,0.12-0.32,0.19-0.5,0.18l-4.91-0.22c-0.38-0.02-0.68-0.34-0.66-0.72
				c0.02-0.38,0.34-0.68,0.72-0.66l4.22,0.19l0.19-4.24c0.02-0.38,0.34-0.68,0.72-0.66c0.38,0.02,0.68,0.34,0.66,0.72l-0.22,4.93
				C943.32,940.97,943.24,941.14,943.1,941.27z"/>
		</g>
	</g>
	<g>
		<g>
			<path class="st22" d="M1129.88,907.35c-0.35,0.14-0.76-0.03-0.9-0.38l-5.17-12.8c-0.14-0.36,0.03-0.76,0.38-0.9
				c0.35-0.14,0.76,0.03,0.9,0.38l5.17,12.8C1130.41,906.8,1130.23,907.21,1129.88,907.35z"/>
		</g>
		<g>
			<path class="st22" d="M1129.88,907.35c-0.17,0.07-0.36,0.07-0.53,0l-4.53-1.92c-0.35-0.15-0.52-0.56-0.37-0.91
				c0.15-0.35,0.56-0.52,0.91-0.37l3.89,1.65l1.66-3.9c0.15-0.35,0.56-0.52,0.91-0.37c0.35,0.15,0.52,0.56,0.37,0.91l-1.93,4.54
				C1130.19,907.15,1130.05,907.28,1129.88,907.35z"/>
		</g>
	</g>
	<g>
		<g>
			<path class="st22" d="M987.02,810.52c-0.01-0.38,0.3-0.7,0.68-0.7l13.8-0.22c0.38-0.01,0.7,0.3,0.7,0.68
				c0.01,0.38-0.3,0.7-0.68,0.7l-13.8,0.21C987.34,811.21,987.03,810.91,987.02,810.52z"/>
		</g>
		<g>
			<path class="st22" d="M987.02,810.52c0-0.18,0.07-0.36,0.2-0.49l3.42-3.53c0.27-0.27,0.71-0.28,0.98-0.02
				c0.27,0.27,0.28,0.71,0.02,0.98l-2.94,3.03l3.04,2.95c0.27,0.27,0.28,0.71,0.02,0.98c-0.27,0.27-0.71,0.28-0.98,0.02l-3.54-3.43
				C987.1,810.88,987.02,810.71,987.02,810.52z"/>
		</g>
	</g>
	<g>
		<g>
			<path class="st22" d="M1099.67,960.27c0,0.38-0.31,0.69-0.69,0.69h-13.81c-0.38,0-0.69-0.31-0.69-0.69s0.31-0.69,0.69-0.69h13.81
				C1099.36,959.58,1099.67,959.89,1099.67,960.27z"/>
		</g>
		<g>
			<path class="st22" d="M1099.67,960.27c0,0.18-0.07,0.36-0.2,0.49l-3.48,3.48c-0.27,0.27-0.71,0.27-0.98,0
				c-0.27-0.27-0.27-0.71,0-0.98l2.99-2.99l-3-3c-0.27-0.27-0.27-0.71,0-0.98c0.27-0.27,0.71-0.27,0.98,0l3.49,3.49
				C1099.6,959.91,1099.67,960.09,1099.67,960.27z"/>
		</g>
	</g>
</g>
<line class="st8" x1="1127.62" y1="960.33" x2="1656.63" y2="960.33"/>
<circle class="st9" cx="1402.73" cy="960.33" r="40"/>
<circle class="st9" cx="1264.18" cy="960.33" r="40"/>
<circle class="st9" cx="1529.68" cy="960.33" r="40"/>
<g>
	<circle class="st22" cx="1656.63" cy="960.33" r="37.5"/>
	<path class="st23" d="M1656.63,925.33c19.3,0,35,15.7,35,35s-15.7,35-35,35s-35-15.7-35-35S1637.33,925.33,1656.63,925.33
		 M1656.63,920.33c-22.09,0-40,17.91-40,40c0,22.09,17.91,40,40,40c22.09,0,40-17.91,40-40
		C1696.63,938.24,1678.72,920.33,1656.63,920.33L1656.63,920.33z"/>
</g>
<circle class="st9" cx="1030.39" cy="960.11" r="40"/>
<text transform="matrix(1 0 0 1 671.8956 1016.5067)" class="st21 st5 st20">aprofundamento</text>
<g>
	<g>
		<path class="st22" d="M859.98,1045.29c-0.43,0-0.78-0.35-0.77-0.78l0.05-15.48c0-0.43,0.35-0.78,0.78-0.77
			c0.43,0,0.78,0.35,0.77,0.78l-0.05,15.48C860.76,1044.95,860.41,1045.29,859.98,1045.29z"/>
	</g>
	<g>
		<path class="st22" d="M859.98,1045.29c-0.21,0-0.4-0.08-0.55-0.23l-3.89-3.91c-0.3-0.3-0.3-0.8,0-1.1c0.3-0.3,0.8-0.3,1.1,0
			l3.34,3.36l3.37-3.35c0.3-0.3,0.8-0.3,1.1,0c0.3,0.3,0.3,0.8,0,1.1l-3.92,3.9C860.39,1045.21,860.19,1045.29,859.98,1045.29z"/>
	</g>
</g>
<path class="st8" d="M1137.98,941.46v60.08c0,46.45-37.65,86.1-84.1,86.1H861.25"/>
<g>
	<g>
		<path class="st22" d="M1137.3,1012.01c0.42,0.1,0.68,0.51,0.58,0.93l-3.5,15.08c-0.1,0.42-0.51,0.68-0.93,0.58
			c-0.42-0.1-0.68-0.51-0.58-0.93l3.5-15.08C1136.46,1012.18,1136.88,1011.92,1137.3,1012.01z"/>
	</g>
	<g>
		<path class="st22" d="M1137.3,1012.01c0.2,0.05,0.37,0.17,0.48,0.35l2.92,4.68c0.23,0.36,0.12,0.84-0.25,1.07
			c-0.36,0.23-0.84,0.12-1.07-0.25l-2.51-4.02l-4.04,2.51c-0.36,0.23-0.84,0.12-1.07-0.25c-0.23-0.36-0.12-0.84,0.25-1.07l4.7-2.93
			C1136.89,1012,1137.1,1011.97,1137.3,1012.01z"/>
	</g>
</g>
<g>
	<g>
		<path class="st22" d="M921.84,1087.65c0,0.43-0.35,0.78-0.78,0.78h-15.48c-0.43,0-0.78-0.35-0.78-0.78s0.35-0.78,0.78-0.78h15.48
			C921.49,1086.87,921.84,1087.22,921.84,1087.65z"/>
	</g>
	<g>
		<path class="st22" d="M921.84,1087.65c0,0.21-0.08,0.4-0.23,0.55l-3.9,3.9c-0.3,0.3-0.8,0.3-1.1,0c-0.3-0.3-0.3-0.8,0-1.1
			l3.35-3.35l-3.36-3.36c-0.3-0.3-0.3-0.8,0-1.1c0.3-0.3,0.8-0.3,1.1,0l3.91,3.91C921.76,1087.24,921.84,1087.44,921.84,1087.65z"/>
	</g>
</g>
<g>
	<g>
		<path class="st22" d="M1003.01,1087.65c0,0.43-0.35,0.78-0.78,0.78h-15.48c-0.43,0-0.78-0.35-0.78-0.78s0.35-0.78,0.78-0.78h15.48
			C1002.67,1086.87,1003.01,1087.22,1003.01,1087.65z"/>
	</g>
	<g>
		<path class="st22" d="M1003.01,1087.65c0,0.21-0.08,0.4-0.23,0.55l-3.9,3.9c-0.3,0.3-0.8,0.3-1.1,0c-0.3-0.3-0.3-0.8,0-1.1
			l3.35-3.35l-3.36-3.36c-0.3-0.3-0.3-0.8,0-1.1c0.3-0.3,0.8-0.3,1.1,0l3.91,3.91C1002.93,1087.24,1003.01,1087.44,1003.01,1087.65z
			"/>
	</g>
</g>
<g>
	<g>
		<path class="st22" d="M1086.06,1080.92c0.14,0.41-0.08,0.85-0.49,0.98l-14.68,4.91c-0.41,0.14-0.85-0.08-0.98-0.49
			c-0.14-0.41,0.08-0.85,0.49-0.98l14.68-4.91C1085.49,1080.29,1085.93,1080.51,1086.06,1080.92z"/>
	</g>
	<g>
		<path class="st22" d="M1086.06,1080.92c0.07,0.2,0.05,0.41-0.04,0.59l-2.46,4.93c-0.19,0.38-0.66,0.54-1.04,0.35
			c-0.38-0.19-0.54-0.66-0.35-1.04l2.12-4.24l-4.25-2.12c-0.38-0.19-0.54-0.66-0.35-1.04c0.19-0.38,0.66-0.54,1.04-0.35l4.95,2.47
			C1085.86,1080.56,1086,1080.72,1086.06,1080.92z"/>
	</g>
</g>
<g>
	<g>
		<path class="st22" d="M1333.12,960.34c0,0.43-0.35,0.78-0.78,0.78h-15.48c-0.43,0-0.78-0.35-0.78-0.78c0-0.43,0.35-0.78,0.78-0.78
			h15.48C1332.78,959.56,1333.12,959.91,1333.12,960.34z"/>
	</g>
	<g>
		<path class="st22" d="M1333.12,960.34c0,0.21-0.08,0.4-0.23,0.55l-3.9,3.9c-0.3,0.3-0.8,0.3-1.1,0c-0.3-0.3-0.3-0.8,0-1.1
			l3.35-3.35l-3.36-3.36c-0.3-0.3-0.3-0.8,0-1.1c0.3-0.3,0.8-0.3,1.1,0l3.91,3.91C1333.04,959.93,1333.12,960.13,1333.12,960.34z"/>
	</g>
</g>
<g>
	<g>
		<path class="st22" d="M1474.72,960.34c0,0.43-0.35,0.78-0.78,0.78h-15.48c-0.43,0-0.78-0.35-0.78-0.78c0-0.43,0.35-0.78,0.78-0.78
			h15.48C1474.37,959.56,1474.72,959.91,1474.72,960.34z"/>
	</g>
	<g>
		<path class="st22" d="M1474.72,960.34c0,0.21-0.08,0.4-0.23,0.55l-3.9,3.9c-0.3,0.3-0.8,0.3-1.1,0c-0.3-0.3-0.3-0.8,0-1.1
			l3.35-3.35l-3.36-3.36c-0.3-0.3-0.3-0.8,0-1.1c0.3-0.3,0.8-0.3,1.1,0l3.91,3.91C1474.64,959.93,1474.72,960.13,1474.72,960.34z"/>
	</g>
</g>
<g>
	<g>
		<path class="st22" d="M1598.62,960.34c0,0.43-0.35,0.78-0.78,0.78h-15.48c-0.43,0-0.78-0.35-0.78-0.78c0-0.43,0.35-0.78,0.78-0.78
			h15.48C1598.27,959.56,1598.62,959.91,1598.62,960.34z"/>
	</g>
	<g>
		<path class="st22" d="M1598.62,960.34c0,0.21-0.08,0.4-0.23,0.55l-3.9,3.9c-0.3,0.3-0.8,0.3-1.1,0c-0.3-0.3-0.3-0.8,0-1.1
			l3.35-3.35l-3.36-3.36c-0.3-0.3-0.3-0.8,0-1.1c0.3-0.3,0.8-0.3,1.1,0l3.91,3.91C1598.54,959.93,1598.62,960.13,1598.62,960.34z"/>
	</g>
</g>
<g>
	<g>
		<path class="st22" d="M1193.21,960.34c0,0.43-0.35,0.78-0.78,0.78h-15.48c-0.43,0-0.78-0.35-0.78-0.78c0-0.43,0.35-0.78,0.78-0.78
			h15.48C1192.86,959.56,1193.21,959.91,1193.21,960.34z"/>
	</g>
	<g>
		<path class="st22" d="M1193.21,960.34c0,0.21-0.08,0.4-0.23,0.55l-3.9,3.9c-0.3,0.3-0.8,0.3-1.1,0c-0.3-0.3-0.3-0.8,0-1.1
			l3.35-3.35l-3.36-3.36c-0.3-0.3-0.3-0.8,0-1.1c0.3-0.3,0.8-0.3,1.1,0l3.91,3.91C1193.13,959.93,1193.21,960.13,1193.21,960.34z"/>
	</g>
</g>
<line class="st24" x1="877.11" y1="1002.63" x2="671.9" y2="1002.63"/>
<circle class="st9" cx="1082.09" cy="840.35" r="40"/>
<g>
	<circle class="st14" cx="1615.98" cy="931.18" r="7"/>
	<g>
		<text transform="matrix(1 0 0 1 1611.5649 933.8368)" class="st11 st12 st13">PP</text>
	</g>
</g>
<g>
	<circle class="st25" cx="1361.7" cy="931.18" r="7"/>
	<text transform="matrix(1 0 0 1 1357.1464 933.7792)" class="st11 st12 st13">CC</text>
</g>
<g>
	<circle class="st25" cx="1488.28" cy="931.18" r="7"/>
	<text transform="matrix(1 0 0 1 1483.7225 933.7797)" class="st11 st12 st13">CC</text>
</g>
<g>
	<circle class="st14" cx="1223.21" cy="931.15" r="7"/>
	<g>
		<text transform="matrix(1 0 0 1 1218.7965 933.8129)" class="st11 st12 st13">PP</text>
	</g>
</g>
<g>
	<circle class="st23" cx="881.11" cy="842.49" r="7"/>
	<g>
		<text transform="matrix(1 0 0 1 878.8112 845.1552)" class="st11 st12 st13">D</text>
	</g>
</g>
<g>
	<circle class="st23" cx="1064.86" cy="792.25" r="7"/>
	<g>
		<text transform="matrix(1 0 0 1 1062.5665 794.912)" class="st11 st12 st13">D</text>
	</g>
</g>
<g>
	<circle class="st14" cx="1084.99" cy="789.52" r="7"/>
	<text transform="matrix(1 0 0 1 1080.5692 792.2518)" class="st11 st12 st13">PP</text>
</g>
<g>
	<text transform="matrix(1 0 0 1 1215.3566 871.8524)" class="st21 st5 st20">implementação</text>
</g>
<circle class="st9" cx="1137.77" cy="960.43" r="26.21"/>
<g>
	<text transform="matrix(1 0 0 1 1351.0455 872.1417)" class="st21 st5 st20">comunicação</text>
</g>
<line class="st24" x1="1345.05" y1="863.68" x2="1345.05" y2="981.84"/>
<g id="XMLID_418_">
	<g>
		<path class="st4" d="M1149.33,954.72v13.78c0,3.03-1.24,5.78-3.23,7.77c-2,1.99-4.75,3.23-7.77,3.23c-6.05,0-11.01-4.95-11.01-11
			v-13.78c0-6.05,4.95-11,11.01-11C1144.38,943.72,1149.33,948.67,1149.33,954.72z M1143.8,954.74c0-3.02-2.45-5.47-5.47-5.47
			c-3.02,0-5.47,2.45-5.47,5.47s2.45,5.47,5.47,5.47C1141.35,960.22,1143.8,957.76,1143.8,954.74z M1143.8,970.09
			c0-3.02-2.45-5.47-5.47-5.47c-3.02,0-5.47,2.45-5.47,5.47s2.45,5.47,5.47,5.47C1141.35,975.56,1143.8,973.11,1143.8,970.09z"/>
		<path class="st42" d="M1138.32,949.27c3.02,0,5.47,2.45,5.47,5.47s-2.45,5.47-5.47,5.47c-3.02,0-5.47-2.45-5.47-5.47
			S1135.3,949.27,1138.32,949.27z M1140.83,954.41c0.17-0.17,0.17-0.45,0-0.62l-2.16-2.16l-0.03-0.03
			c-0.05-0.05-0.11-0.09-0.18-0.11c-0.01,0-0.02-0.01-0.03-0.01c-0.03-0.01-0.06-0.01-0.1-0.01c-0.04,0-0.07,0.01-0.1,0.01
			c-0.01,0-0.02,0-0.03,0.01c-0.07,0.02-0.13,0.06-0.18,0.11l-0.03,0.03l-2.17,2.17c-0.17,0.17-0.17,0.45,0,0.62
			c0.17,0.17,0.45,0.17,0.62,0l1.45-1.45v4.95c0,0.24,0.19,0.44,0.44,0.44c0.24,0,0.44-0.2,0.44-0.44v-4.95l1.44,1.44
			C1140.38,954.58,1140.66,954.58,1140.83,954.41z"/>
		<path class="st14" d="M1138.32,964.61c3.02,0,5.47,2.45,5.47,5.47s-2.45,5.47-5.47,5.47c-3.02,0-5.47-2.45-5.47-5.47
			S1135.3,964.61,1138.32,964.61z M1141.76,970.09c0-0.03,0-0.07-0.01-0.1c0-0.01-0.01-0.02-0.01-0.03
			c-0.02-0.07-0.06-0.13-0.11-0.18l-0.03-0.03l-2.17-2.17c-0.17-0.17-0.45-0.17-0.62,0c-0.17,0.17-0.17,0.45,0,0.62l1.45,1.45h-4.95
			c-0.24,0-0.44,0.2-0.44,0.44c0,0.24,0.19,0.44,0.44,0.44h4.95l-1.45,1.45c-0.17,0.17-0.17,0.45,0,0.62c0.17,0.17,0.45,0.17,0.62,0
			l2.19-2.19c0.05-0.05,0.09-0.11,0.11-0.18c0-0.01,0.01-0.02,0.01-0.03C1141.75,970.16,1141.76,970.13,1141.76,970.09z"/>
		<path class="st43" d="M1141.75,969.99c0-0.01-0.01-0.02-0.01-0.03C1141.74,969.97,1141.75,969.98,1141.75,969.99z"/>
		<path class="st43" d="M1141.74,970.22c0-0.01,0.01-0.02,0.01-0.03C1141.74,970.2,1141.74,970.21,1141.74,970.22z"/>
		<path class="st43" d="M1141.75,969.99c0.01,0.03,0.01,0.06,0.01,0.1c0,0.04-0.01,0.07-0.01,0.1c0,0.01,0,0.02-0.01,0.03
			c-0.02,0.07-0.06,0.13-0.11,0.18c-0.08,0.08-0.19,0.13-0.31,0.13h-1.05l0.44-0.44l-0.44-0.44h1.05c0.11,0,0.2,0.04,0.28,0.1
			l0.03,0.03c0.05,0.05,0.09,0.11,0.11,0.18C1141.74,969.97,1141.75,969.98,1141.75,969.99z"/>
		<path class="st43" d="M1141.63,970.4l-2.19,2.19c-0.17,0.17-0.45,0.17-0.62,0c-0.17-0.17-0.17-0.45,0-0.62l1.45-1.45h1.05
			C1141.44,970.53,1141.55,970.48,1141.63,970.4z"/>
		<path class="st43" d="M1139.43,967.58l2.17,2.17c-0.08-0.06-0.17-0.1-0.28-0.1h-1.05l-1.45-1.45c-0.17-0.17-0.17-0.45,0-0.62
			C1138.99,967.41,1139.26,967.41,1139.43,967.58z"/>
		<path class="st43" d="M1140.83,953.79c0.17,0.17,0.17,0.45,0,0.62c-0.17,0.17-0.45,0.17-0.62,0l-1.44-1.44v-1.05
			c0-0.11-0.04-0.2-0.1-0.28L1140.83,953.79z"/>
		<path class="st43" d="M1140.71,970.09l-0.44,0.44h-4.95c-0.24,0-0.44-0.19-0.44-0.44c0-0.24,0.19-0.44,0.44-0.44h4.95
			L1140.71,970.09z"/>
		<path class="st43" d="M1138.76,952.96v4.95c0,0.24-0.2,0.44-0.44,0.44c-0.24,0-0.44-0.2-0.44-0.44v-4.95l0.44-0.44L1138.76,952.96
			z"/>
		<path class="st43" d="M1138.46,951.49c-0.01,0-0.02-0.01-0.03-0.01C1138.43,951.48,1138.44,951.49,1138.46,951.49z"/>
		<path class="st43" d="M1138.33,951.47c0.03,0,0.07,0,0.1,0.01c0.01,0,0.02,0.01,0.03,0.01c0.07,0.02,0.13,0.06,0.18,0.11
			l0.03,0.03c0.06,0.08,0.1,0.17,0.1,0.28v1.05l-0.44-0.44l-0.44,0.44v-1.05c0-0.11,0.04-0.2,0.1-0.28l0.03-0.03
			c0.05-0.05,0.11-0.09,0.18-0.11c0.01,0,0.02-0.01,0.03-0.01C1138.26,951.48,1138.29,951.47,1138.33,951.47z"/>
		<path class="st43" d="M1138.2,951.49c0.01,0,0.02-0.01,0.03-0.01C1138.21,951.49,1138.21,951.49,1138.2,951.49z"/>
		<path class="st43" d="M1135.82,953.8l2.17-2.17c-0.06,0.08-0.1,0.17-0.1,0.28v1.05l-1.45,1.45c-0.17,0.17-0.45,0.17-0.62,0
			C1135.65,954.24,1135.65,953.97,1135.82,953.8z"/>
	</g>
	<g>
		<path class="st50" d="M1138.32,943.72c-6.05,0-11.01,4.95-11.01,11v13.78c0,6.05,4.95,11,11.01,11c3.03,0,5.78-1.24,7.77-3.23
			c1.99-1.99,3.23-4.75,3.23-7.77v-13.78C1149.33,948.67,1144.38,943.72,1138.32,943.72z"/>
		<circle class="st51" cx="1138.32" cy="954.74" r="5.47"/>
		<circle class="st51" cx="1138.32" cy="970.09" r="5.47"/>
		<path class="st51" d="M1131.1,954.74c0-3.99,3.24-7.22,7.23-7.22c3.99,0,7.22,3.23,7.22,7.22"/>
		<path class="st51" d="M1131.1,970.08c0-3.99,3.24-7.22,7.23-7.22c3.99,0,7.22,3.23,7.22,7.22"/>
	</g>
</g>
<g id="XMLID_417_">
	<g>
		<path class="st11" d="M1671.12,964.69c1.54,3.17,1.1,7.88,1.07,8.23c-0.01-0.34-0.19-0.66-0.51-0.96
			c-0.99-0.92-3.35-1.57-6.09-1.57c-2.74,0-5.1,0.65-6.09,1.57c-0.33,0.3-0.51,0.63-0.51,0.98c0,0-0.53-4.95,1.07-8.25l0.01-0.17
			v-0.01v0c0.2-1.11,2.59-1.99,5.52-1.99c2.95,0,5.35,0.89,5.52,2.01l0.01,0.13L1671.12,964.69z"/>
		<path class="st27" d="M1672.18,972.93c0,1.41-2.95,2.55-6.6,2.55c-3.64,0-6.6-1.14-6.6-2.55c0-0.35,0.18-0.68,0.51-0.98
			c0.99,0.92,3.35,1.57,6.09,1.57c2.74,0,5.1-0.65,6.09-1.57c0.32,0.3,0.5,0.62,0.51,0.96c0,0,0,0,0,0
			C1672.18,972.92,1672.18,972.93,1672.18,972.93z"/>
		<path class="st11" d="M1669.93,948.82l1.17,15.72c-0.17-1.12-2.57-2.01-5.52-2.01c-2.93,0-5.32,0.88-5.52,1.99l0.2-2.73v0h0.46
			l0.92-1.82v-4.44h-0.91l0.5-6.71l0.33-0.65l0,0c0.66-0.61,2.21-1.03,4.02-1.03c1.81,0,3.36,0.43,4.02,1.03L1669.93,948.82z"/>
		<path class="st10" d="M1665.58,970.38c2.74,0,5.1,0.65,6.09,1.57c-0.99,0.92-3.35,1.57-6.09,1.57c-2.74,0-5.1-0.65-6.09-1.57
			C1660.49,971.03,1662.84,970.38,1665.58,970.38z"/>
		<path class="st27" d="M1668.91,946.84l0.69,1.33c-0.66-0.61-2.21-1.03-4.02-1.03c-1.81,0-3.36,0.43-4.02,1.03l0.69-1.33h0
			c0-0.71,1.49-1.29,3.33-1.29C1667.42,945.55,1668.91,946.13,1668.91,946.84z"/>
		<polygon class="st11" points="1660.73,955.53 1661.65,955.53 1661.65,959.96 1651.62,959.96 1651.62,955.53 1652.53,955.53 		"/>
		<polygon class="st27" points="1661.65,959.96 1660.73,961.78 1660.27,961.78 1652.99,961.78 1652.53,961.78 1651.62,959.96 		"/>
		<path class="st11" d="M1654.28,972.91C1654.28,972.92,1654.28,972.92,1654.28,972.91
			C1654.28,972.92,1654.28,972.92,1654.28,972.91c0,0.02,0,0.02,0,0.02c0-0.35-0.18-0.68-0.51-0.98c-0.99-0.92-3.35-1.57-6.09-1.57
			c-2.74,0-5.1,0.65-6.09,1.57c-0.33,0.3-0.51,0.64-0.51,0.98c0,0-0.53-4.95,1.07-8.25l0-0.03l0.01-0.13
			c0.17-1.12,2.57-2.01,5.52-2.01c2.93,0,5.33,0.88,5.52,2v0.01l0.01,0.13l0,0.03C1654.75,967.86,1654.31,972.57,1654.28,972.91z"/>
		<path class="st27" d="M1653.77,971.95c0.33,0.3,0.51,0.63,0.51,0.98c0,1.41-2.95,2.55-6.6,2.55c-3.64,0-6.6-1.14-6.6-2.55
			c0-0.35,0.18-0.68,0.51-0.98l0,0c0.99,0.92,3.35,1.57,6.09,1.57C1650.42,973.52,1652.78,972.87,1653.77,971.95z"/>
		<path class="st11" d="M1653.2,964.51L1653.2,964.51c-0.19-1.11-2.59-1.99-5.52-1.99c-2.95,0-5.35,0.89-5.52,2.01l1.17-15.72
			l0.33-0.65c0.66-0.61,2.21-1.03,4.02-1.03c1.81,0,3.36,0.43,4.02,1.03l0,0l0.33,0.65l0.5,6.71h-0.91v4.44l0.92,1.82h0.46v0
			L1653.2,964.51z"/>
		<path class="st10" d="M1647.68,970.38c2.75,0,5.1,0.65,6.09,1.57c-0.99,0.92-3.35,1.57-6.09,1.57c-2.74,0-5.1-0.65-6.09-1.57l0,0
			C1642.58,971.03,1644.93,970.38,1647.68,970.38z"/>
		<path class="st27" d="M1651.01,946.84l0.69,1.33c-0.66-0.61-2.21-1.03-4.02-1.03c-1.81,0-3.36,0.43-4.02,1.03l0.69-1.33
			c0-0.71,1.49-1.29,3.33-1.29C1649.52,945.55,1651.01,946.13,1651.01,946.84z"/>
	</g>
	<g>
		<path class="st29" d="M1672.18,972.92c0,0.01,0,0.01,0,0.02c0,1.41-2.95,2.55-6.6,2.55c-3.64,0-6.6-1.14-6.6-2.55
			c0-0.35,0.18-0.68,0.51-0.98c1-0.92,3.35-1.57,6.09-1.57c2.74,0,5.1,0.65,6.09,1.57C1672,972.25,1672.18,972.57,1672.18,972.92"/>
		<path class="st29" d="M1654.28,972.93c0,1.41-2.95,2.55-6.6,2.55c-3.64,0-6.6-1.14-6.6-2.55c0-0.35,0.18-0.68,0.51-0.98
			c0.99-0.92,3.35-1.57,6.09-1.57c2.75,0,5.1,0.65,6.09,1.57C1654.1,972.26,1654.28,972.59,1654.28,972.93z"/>
		<path class="st29" d="M1659.49,971.95c0.99,0.92,3.35,1.57,6.09,1.57c2.74,0,5.1-0.65,6.09-1.57"/>
		<path class="st29" d="M1641.59,971.95c0.99,0.92,3.35,1.57,6.09,1.57c2.74,0,5.1-0.65,6.09-1.57"/>
		<path class="st29" d="M1653.2,964.53c0.01,0.05,0.01,0.09,0.01,0.13"/>
		<path class="st29" d="M1642.15,964.66c0-0.04,0-0.08,0.01-0.13c0.17-1.12,2.57-2.01,5.52-2.01c2.93,0,5.33,0.88,5.52,2"/>
		<path class="st29" d="M1644.35,946.84c0-0.71,1.49-1.29,3.33-1.29c1.84,0,3.33,0.58,3.33,1.29"/>
		<path class="st29" d="M1651.7,948.17c0.22,0.2,0.33,0.42,0.33,0.65"/>
		<path class="st29" d="M1643.33,948.82c0-0.23,0.12-0.45,0.33-0.65c0.66-0.61,2.21-1.03,4.02-1.03c1.81,0,3.36,0.43,4.02,1.03"/>
		<path class="st29" d="M1661.57,948.17c0.66-0.61,2.21-1.03,4.02-1.03c1.81,0,3.36,0.43,4.02,1.03c0.22,0.2,0.33,0.42,0.33,0.65"/>
		<path class="st29" d="M1661.23,948.82c0-0.23,0.12-0.45,0.33-0.65"/>
		<path class="st29" d="M1662.25,946.84c0-0.71,1.49-1.29,3.33-1.29c1.84,0,3.33,0.58,3.33,1.29"/>
		<path class="st29" d="M1660.07,964.51c0.2-1.11,2.59-1.99,5.52-1.99c2.95,0,5.35,0.89,5.52,2.01c0.01,0.04,0.01,0.08,0.01,0.13"/>
		<path class="st29" d="M1660.05,964.66c0-0.05,0-0.1,0.01-0.15"/>
		<polygon class="st29" points="1651.62,959.96 1661.65,959.96 1661.65,955.53 1660.73,955.53 1652.53,955.53 1651.62,955.53 		"/>
		<polyline class="st29" points="1651.62,959.96 1652.53,961.78 1652.99,961.78 1660.27,961.78 1660.73,961.78 1661.65,959.96 		"/>
		<path class="st29" d="M1644.35,946.84l-0.69,1.33l-0.33,0.65l-1.17,15.72l-0.01,0.13l0,0.03c-1.6,3.29-1.07,8.25-1.07,8.25"/>
		<path class="st29" d="M1652.99,961.78l0.2,2.73v0.01v0.01l0.01,0.13l0,0.03c1.54,3.17,1.1,7.88,1.07,8.23c0,0,0,0,0,0c0,0,0,0,0,0
			c0,0.01,0,0.01,0,0.01"/>
		<polyline class="st29" points="1652.53,955.53 1652.53,955.53 1652.03,948.82 1651.7,948.17 1651.7,948.17 1651.01,946.84 		"/>
		<path class="st29" d="M1660.27,961.78l-0.2,2.73v0v0.01l-0.01,0.17c-1.6,3.29-1.07,8.25-1.07,8.25"/>
		<polyline class="st29" points="1660.73,955.53 1660.73,955.53 1661.23,948.82 1661.57,948.17 1661.57,948.17 1662.26,946.84 		"/>
		<path class="st29" d="M1668.91,946.84l0.69,1.33l0.33,0.65l1.17,15.72l0.01,0.13l0,0.03c1.54,3.17,1.1,7.88,1.07,8.23c0,0,0,0,0,0
			c0,0.01,0,0.02,0,0.02"/>
	</g>
</g>
<g>
	<circle class="st26" cx="1001.98" cy="918.33" r="7"/>
	<text transform="matrix(1 0 0 1 997.4111 921.0609)" class="st11 st12 st13">CD</text>
</g>
<g>
	<circle class="st10" cx="989.33" cy="930.95" r="7"/>
	<text transform="matrix(1 0 0 1 984.9583 933.683)" class="st11 st12 st13">SD</text>
</g>
<text transform="matrix(1 0 0 1 1067.5494 832.8201)"><tspan x="0" y="0" class="st11 st5 st6">geração</tspan><tspan x="-7.96" y="11" class="st11 st5 st6">e seleção de</tspan><tspan x="-6.66" y="22" class="st11 st5 st6">alternativas</tspan></text>
<text transform="matrix(1 0 0 1 1012.8605 959.2401)"><tspan x="0" y="0" class="st11 st5 st6">teste com</tspan><tspan x="0.85" y="11" class="st11 st5 st6">o usuário</tspan></text>
<text transform="matrix(1 0 0 1 1241.0792 958.7811)"><tspan x="0" y="0" class="st11 st5 st6">estratégia de</tspan><tspan x="-4.26" y="11" class="st11 st5 st6">implementação</tspan></text>
<text transform="matrix(1 0 0 1 1385.0524 957.782)"><tspan x="0" y="0" class="st11 st5 st6">produção</tspan><tspan x="-3.52" y="11" class="st11 st5 st6">de relatório</tspan></text>
<text transform="matrix(1 0 0 1 1510.4865 958.783)"><tspan x="0" y="0" class="st11 st5 st6">divulgação</tspan><tspan x="1.26" y="11" class="st11 st5 st6">do projeto</tspan></text>
<line class="st24" x1="1209.31" y1="863.68" x2="1209.31" y2="979.4"/>
<circle class="st9" cx="921.85" cy="871.65" r="40"/>
<text transform="matrix(1 0 0 1 901.2076 869.574)"><tspan x="0" y="0" class="st11 st5 st6">desenh</tspan><tspan x="25.75" y="0" class="st11 st5 st6">o do</tspan><tspan x="4.13" y="11" class="st11 st5 st6">protótipo</tspan></text>
<text transform="matrix(1 0 0 1 1154.483 1062.8246)" class="st21 st5 st20">sessão de ideias</text>
<line class="st24" x1="1103.4" y1="1046.76" x2="1257.24" y2="1046.76"/>
<g>
	<g>
		<path class="st22" d="M735.75,1088.7c-0.13-0.41-0.56-0.64-0.97-0.51l-14.79,4.57c-0.41,0.13-0.64,0.56-0.51,0.97
			c0.13,0.41,0.56,0.64,0.97,0.51l14.79-4.57C735.65,1089.54,735.88,1089.11,735.75,1088.7z"/>
	</g>
	<g>
		<path class="st22" d="M735.75,1088.7c-0.06-0.2-0.2-0.36-0.38-0.46l-4.88-2.57c-0.38-0.2-0.85-0.05-1.05,0.32
			c-0.2,0.38-0.05,0.85,0.32,1.05l4.19,2.21l-2.22,4.21c-0.2,0.38-0.06,0.85,0.32,1.05c0.38,0.2,0.85,0.05,1.05-0.32l2.58-4.89
			C735.79,1089.11,735.81,1088.89,735.75,1088.7z"/>
	</g>
</g>
<g>
	<g>
		<path class="st22" d="M842.33,1152.63c0.39,0.19,0.85,0.02,1.04-0.37l6.68-13.97c0.19-0.39,0.02-0.85-0.37-1.04
			s-0.85-0.02-1.04,0.37l-6.68,13.97C841.78,1151.98,841.94,1152.44,842.33,1152.63z"/>
	</g>
	<g>
		<path class="st22" d="M842.33,1152.63c0.19,0.09,0.4,0.1,0.59,0.03l5.2-1.84c0.4-0.14,0.62-0.59,0.47-0.99
			c-0.14-0.4-0.59-0.62-0.99-0.47l-4.47,1.58l-1.58-4.48c-0.14-0.4-0.59-0.62-0.99-0.47c-0.4,0.14-0.62,0.59-0.47,0.99l1.84,5.22
			C842,1152.38,842.14,1152.54,842.33,1152.63z"/>
	</g>
</g>
<g>
	<g>
		<path class="st22" d="M775.86,1201.36c0.14,0.41,0.58,0.62,0.99,0.48l14.63-5.05c0.41-0.14,0.62-0.58,0.48-0.99
			s-0.58-0.62-0.99-0.48l-14.63,5.05C775.94,1200.51,775.72,1200.96,775.86,1201.36z"/>
	</g>
	<g>
		<path class="st22" d="M775.86,1201.36c0.07,0.19,0.21,0.35,0.39,0.45l4.96,2.41c0.39,0.19,0.85,0.03,1.04-0.36
			c0.19-0.39,0.03-0.85-0.36-1.04l-4.26-2.07l2.08-4.27c0.19-0.39,0.03-0.85-0.36-1.04s-0.85-0.03-1.04,0.36l-2.42,4.97
			C775.81,1200.95,775.8,1201.17,775.86,1201.36z"/>
	</g>
</g>
<g>
	<g>
		<path class="st22" d="M816.32,1087.85c0-0.43-0.35-0.78-0.78-0.78h-15.48c-0.43,0-0.78,0.35-0.78,0.78c0,0.43,0.35,0.78,0.78,0.78
			h15.48C815.97,1088.63,816.32,1088.28,816.32,1087.85z"/>
	</g>
	<g>
		<path class="st22" d="M816.32,1087.85c0-0.21-0.08-0.4-0.23-0.55l-3.9-3.9c-0.3-0.3-0.8-0.3-1.1,0s-0.3,0.8,0,1.1l3.35,3.35
			l-3.36,3.36c-0.3,0.3-0.3,0.8,0,1.1c0.3,0.3,0.8,0.3,1.1,0l3.91-3.91C816.24,1088.26,816.32,1088.06,816.32,1087.85z"/>
	</g>
</g>
<g>
	<circle class="st9" cx="859.86" cy="1090.05" r="26.21"/>
</g>
<g id="XMLID_416_">
	<g>
		<path class="st4" d="M870.87,1096.93v-13.78c0-3.03-1.24-5.78-3.23-7.77c-1.99-1.99-4.75-3.23-7.77-3.23
			c-6.05,0-11.01,4.95-11.01,11v13.78c0,6.05,4.95,11,11.01,11C865.92,1107.94,870.87,1102.99,870.87,1096.93z M865.34,1096.91
			c0,3.02-2.45,5.47-5.47,5.47c-3.02,0-5.47-2.45-5.47-5.47c0-3.02,2.45-5.47,5.47-5.47
			C862.89,1091.44,865.34,1093.89,865.34,1096.91z M865.34,1081.57c0,3.02-2.45,5.47-5.47,5.47c-3.02,0-5.47-2.45-5.47-5.47
			s2.45-5.47,5.47-5.47C862.89,1076.09,865.34,1078.54,865.34,1081.57z"/>
		<path class="st42" d="M859.86,1102.39c3.02,0,5.47-2.45,5.47-5.47c0-3.02-2.45-5.47-5.47-5.47c-3.02,0-5.47,2.45-5.47,5.47
			C854.39,1099.94,856.84,1102.39,859.86,1102.39z M862.37,1097.25c0.17,0.17,0.17,0.45,0,0.62l-2.16,2.16l-0.03,0.03
			c-0.03,0.03-0.07,0.06-0.11,0.08c-0.01,0.01-0.02,0.01-0.04,0.02c-0.01,0.01-0.03,0.01-0.04,0.01c-0.01,0-0.02,0.01-0.03,0.01
			c-0.03,0.01-0.06,0.01-0.1,0.01c-0.04,0-0.07-0.01-0.1-0.01c-0.01,0-0.02,0-0.03-0.01c-0.01,0-0.03-0.01-0.04-0.01
			c-0.01-0.01-0.03-0.01-0.04-0.02c-0.04-0.02-0.07-0.05-0.11-0.08l-0.03-0.03l-2.17-2.17c-0.17-0.17-0.17-0.45,0-0.62
			c0.17-0.17,0.45-0.17,0.62,0l1.45,1.45v-4.94c0-0.24,0.19-0.44,0.44-0.44c0.24,0,0.44,0.19,0.44,0.44v4.94l1.44-1.44
			C861.92,1097.07,862.2,1097.07,862.37,1097.25z"/>
		<path class="st14" d="M859.86,1087.04c3.02,0,5.47-2.45,5.47-5.47s-2.45-5.47-5.47-5.47c-3.02,0-5.47,2.45-5.47,5.47
			S856.84,1087.04,859.86,1087.04z M863.3,1081.56c0,0.04-0.01,0.07-0.01,0.1c0,0.01,0,0.02-0.01,0.03c0,0.01-0.01,0.03-0.01,0.04
			c-0.01,0.01-0.01,0.03-0.02,0.04c-0.02,0.04-0.05,0.07-0.08,0.11l-0.03,0.03l-2.17,2.17c-0.17,0.17-0.45,0.17-0.62,0
			c-0.17-0.17-0.17-0.45,0-0.62l1.45-1.45h-4.95c-0.24,0-0.44-0.19-0.44-0.44c0-0.24,0.19-0.44,0.44-0.44h4.95l-1.45-1.45
			c-0.17-0.17-0.17-0.45,0-0.62c0.17-0.17,0.45-0.17,0.62,0l2.19,2.19c0.03,0.03,0.06,0.07,0.08,0.11c0.01,0.02,0.02,0.04,0.03,0.06
			c0,0.01,0,0.01,0.01,0.02c0,0.01,0.01,0.02,0.01,0.03C863.29,1081.49,863.3,1081.53,863.3,1081.56z"/>
		<path class="st43" d="M863.29,1081.67c0,0.01,0,0.02-0.01,0.03C863.28,1081.68,863.28,1081.68,863.29,1081.67z"/>
		<path class="st43" d="M863.28,1081.43c0,0.01,0.01,0.02,0.01,0.03C863.28,1081.45,863.28,1081.44,863.28,1081.43z"/>
		<path class="st43" d="M863.28,1081.69c0-0.01,0.01-0.02,0.01-0.03c0.01-0.03,0.01-0.07,0.01-0.1s-0.01-0.07-0.01-0.1
			c0-0.01,0-0.02-0.01-0.03c0-0.01,0-0.01-0.01-0.02c-0.01-0.02-0.02-0.04-0.03-0.06c-0.02-0.04-0.05-0.07-0.08-0.11
			c-0.08-0.08-0.19-0.13-0.31-0.13h-1.05l0.44,0.44l-0.44,0.44h1.05c0.11,0,0.2-0.04,0.28-0.1l0.03-0.03
			c0.03-0.03,0.06-0.07,0.08-0.11c0.01-0.01,0.01-0.02,0.02-0.04C863.27,1081.72,863.28,1081.7,863.28,1081.69z"/>
		<path class="st43" d="M863.25,1081.77c0.01-0.01,0.01-0.02,0.02-0.04C863.26,1081.74,863.26,1081.75,863.25,1081.77z"/>
		<path class="st43" d="M863.25,1081.36c0.01,0.02,0.02,0.04,0.03,0.06C863.27,1081.4,863.26,1081.38,863.25,1081.36z"/>
		<path class="st43" d="M863.17,1081.25l-2.19-2.19c-0.17-0.17-0.45-0.17-0.62,0c-0.17,0.17-0.17,0.45,0,0.62l1.45,1.45h1.05
			C862.98,1081.13,863.09,1081.17,863.17,1081.25z"/>
		<path class="st43" d="M860.97,1084.07l2.17-2.17c-0.08,0.06-0.17,0.1-0.28,0.1h-1.05l-1.45,1.45c-0.17,0.17-0.17,0.45,0,0.62
			C860.53,1084.24,860.8,1084.24,860.97,1084.07z"/>
		<path class="st43" d="M862.37,1097.86c0.17-0.17,0.17-0.45,0-0.62c-0.17-0.17-0.45-0.17-0.62,0l-1.44,1.44v1.06
			c0,0.11-0.04,0.2-0.1,0.28L862.37,1097.86z"/>
		<path class="st43" d="M862.25,1081.56l-0.44-0.44h-4.95c-0.24,0-0.44,0.19-0.44,0.44c0,0.24,0.19,0.44,0.44,0.44h4.95
			L862.25,1081.56z"/>
		<path class="st43" d="M860.3,1098.69v-4.94c0-0.24-0.2-0.44-0.44-0.44c-0.24,0-0.44,0.19-0.44,0.44v4.94l0.44,0.44L860.3,1098.69z
			"/>
		<path class="st43" d="M860.07,1100.13c-0.01,0.01-0.02,0.01-0.04,0.02C860.05,1100.14,860.06,1100.14,860.07,1100.13z"/>
		<path class="st43" d="M860,1100.16c-0.01,0-0.02,0.01-0.03,0.01C859.97,1100.17,859.99,1100.17,860,1100.16z"/>
		<path class="st43" d="M859.87,1100.18c0.03,0,0.07,0,0.1-0.01c0.01,0,0.02-0.01,0.03-0.01c0.01,0,0.03-0.01,0.04-0.01
			c0.01-0.01,0.03-0.01,0.04-0.02c0.04-0.02,0.07-0.05,0.11-0.08l0.03-0.03c0.06-0.08,0.1-0.17,0.1-0.28v-1.06l-0.44,0.44
			l-0.44-0.44v1.06c0,0.11,0.04,0.2,0.1,0.28l0.03,0.03c0.03,0.03,0.07,0.06,0.11,0.08c0.01,0.01,0.02,0.01,0.04,0.02
			c0.01,0.01,0.03,0.01,0.04,0.01c0.01,0,0.02,0.01,0.03,0.01C859.8,1100.18,859.83,1100.18,859.87,1100.18z"/>
		<path class="st43" d="M859.76,1100.17c-0.01,0-0.02,0-0.03-0.01C859.75,1100.17,859.75,1100.17,859.76,1100.17z"/>
		<path class="st43" d="M859.7,1100.15c-0.01-0.01-0.03-0.01-0.04-0.02C859.68,1100.14,859.69,1100.14,859.7,1100.15z"/>
		<path class="st43" d="M857.36,1097.86l2.17,2.17c-0.06-0.08-0.1-0.17-0.1-0.28v-1.06l-1.45-1.45c-0.17-0.17-0.45-0.17-0.62,0
			C857.19,1097.41,857.19,1097.69,857.36,1097.86z"/>
	</g>
	<g>
		<path class="st44" d="M859.86,1107.94c-6.05,0-11.01-4.95-11.01-11v-13.78c0-6.05,4.95-11,11.01-11c3.03,0,5.78,1.24,7.77,3.23
			c1.99,2,3.23,4.75,3.23,7.77v13.78C870.87,1102.99,865.92,1107.94,859.86,1107.94z"/>
		<circle class="st44" cx="859.86" cy="1096.91" r="5.47"/>
		<circle class="st44" cx="859.86" cy="1081.57" r="5.47"/>
		<path class="st44" d="M852.64,1096.91c0,3.99,3.24,7.23,7.23,7.23s7.22-3.24,7.22-7.23"/>
		<path class="st44" d="M852.64,1081.58c0,3.99,3.24,7.22,7.23,7.22s7.22-3.23,7.22-7.22"/>
	</g>
</g>
<g>
	<path class="st25" d="M1926.29,1478.82c0.34,9.28-8.33,15.28-15.44,15.16c-7.29-0.13-15.15-6.9-14.93-15.59
		c0.16-6.6,5.92-14.86,15.36-14.79C1919.55,1463.66,1926.63,1470.58,1926.29,1478.82z M1923.54,1478.81
		c0.02-6.9-5.41-12.37-12.33-12.42c-6.79-0.04-12.47,5.56-12.49,12.33c-0.02,6.75,5.61,12.4,12.4,12.44
		C1917.43,1491.2,1923.71,1485.95,1923.54,1478.81z"/>
	<path class="st25" d="M1860.18,1478.78c-0.49-7.06,6.03-15.21,15.09-15.18c8.88,0.04,15.31,7.57,15.22,15.41
		c-0.11,8.93-8.16,15.07-15.51,14.94C1867.52,1493.83,1859.77,1487.11,1860.18,1478.78z M1862.89,1478.78
		c0,6.71,5.64,12.32,12.38,12.34c6.87,0.02,12.42-5.5,12.41-12.35c-0.01-6.89-5.51-12.39-12.39-12.38
		C1868.47,1466.4,1862.88,1471.98,1862.89,1478.78z"/>
	<path class="st11" d="M1923.54,1478.81c0.17,7.14-6.12,12.39-12.42,12.35c-6.79-0.04-12.42-5.69-12.4-12.44
		c0.02-6.76,5.7-12.37,12.49-12.33C1918.14,1466.44,1923.57,1471.91,1923.54,1478.81z M1915.25,1481.19c0-2.09,0.01-4.08-0.01-6.08
		c-0.01-0.7-0.44-1.07-1.14-1.07c-1.97-0.01-3.94-0.01-5.92,0c-0.63,0-1.12,0.28-1.14,0.95c-0.04,2.06-0.01,4.11-0.01,6.2
		c0.62,0.04,1.12,0.07,1.73,0.11c0,2.43,0,4.8,0,7.21c1.61,0,3.12,0,4.76,0c0-2.44,0-4.83,0-7.23
		C1914.14,1481.24,1914.62,1481.22,1915.25,1481.19z M1913.27,1471.12c-0.01-1.42-0.75-2.14-2.18-2.12
		c-1.38,0.02-2.04,0.71-2.04,2.14c0,1.41,0.67,2.1,2.06,2.12C1912.54,1473.28,1913.27,1472.55,1913.27,1471.12z"/>
	<path class="st11" d="M1862.89,1478.78c0-6.81,5.58-12.38,12.41-12.39c6.88-0.01,12.38,5.49,12.39,12.38
		c0.01,6.84-5.55,12.36-12.41,12.35C1868.52,1491.11,1862.89,1485.49,1862.89,1478.78z M1875.1,1476.29
		c-1.24-1.96-3.4-2.69-5.54-1.98c-2.08,0.69-3.12,2.58-2.9,5.25c0.18,2.11,1.64,3.63,3.77,3.92c2.01,0.27,3.94-0.73,4.61-2.42
		c-0.57-0.29-1.14-0.59-1.74-0.9c-0.57,1.04-1.37,1.51-2.45,1.21c-1.07-0.29-1.37-1.21-1.44-2.18c-0.04-0.57,0.01-1.18,0.18-1.73
		c0.43-1.41,1.99-1.78,3.05-0.75c0.19,0.19,0.36,0.39,0.54,0.59C1873.83,1476.95,1874.44,1476.64,1875.1,1476.29z M1883.83,1476.31
		c-1.05-1.9-3.2-2.68-5.35-2.06c-2.06,0.6-3.2,2.48-3.06,5.04c0.12,2.23,1.46,3.77,3.62,4.15c2.02,0.36,4.06-0.64,4.78-2.38
		c-0.27-0.14-0.54-0.29-0.82-0.43c-0.3-0.15-0.61-0.29-0.9-0.43c-0.91,1.1-1.49,1.39-2.38,1.21c-0.99-0.21-1.58-1.18-1.6-2.6
		c-0.01-1.5,0.48-2.46,1.53-2.58c0.55-0.06,1.15,0.23,1.7,0.44c0.22,0.09,0.37,0.39,0.57,0.63
		C1882.56,1476.97,1883.16,1476.66,1883.83,1476.31z"/>
	<path class="st25" d="M1915.25,1481.19c-0.63,0.03-1.11,0.05-1.73,0.08c0,2.4,0,4.79,0,7.23c-1.64,0-3.14,0-4.76,0
		c0-2.41,0-4.78,0-7.21c-0.6-0.04-1.1-0.07-1.73-0.11c0-2.08-0.02-4.14,0.01-6.2c0.01-0.67,0.51-0.95,1.14-0.95
		c1.97-0.01,3.94-0.01,5.92,0c0.7,0,1.13,0.37,1.14,1.07C1915.27,1477.1,1915.25,1479.1,1915.25,1481.19z"/>
	<path class="st25" d="M1913.27,1471.12c0.01,1.43-0.73,2.16-2.16,2.14c-1.39-0.02-2.06-0.71-2.06-2.12c0-1.43,0.66-2.12,2.04-2.14
		C1912.52,1468.97,1913.26,1469.7,1913.27,1471.12z"/>
	<path class="st25" d="M1875.1,1476.29c-0.67,0.35-1.27,0.67-1.92,1.01c-0.18-0.2-0.35-0.41-0.54-0.59
		c-1.05-1.03-2.62-0.67-3.05,0.75c-0.17,0.55-0.22,1.16-0.18,1.73c0.06,0.97,0.37,1.88,1.44,2.18c1.08,0.3,1.88-0.17,2.45-1.21
		c0.6,0.31,1.18,0.6,1.74,0.9c-0.67,1.69-2.6,2.69-4.61,2.42c-2.13-0.29-3.59-1.81-3.77-3.92c-0.22-2.67,0.82-4.56,2.9-5.25
		C1871.7,1473.6,1873.87,1474.32,1875.1,1476.29z"/>
	<path class="st25" d="M1883.83,1476.31c-0.67,0.35-1.27,0.67-1.89,1c-0.21-0.24-0.35-0.54-0.57-0.63c-0.55-0.21-1.16-0.51-1.7-0.44
		c-1.05,0.12-1.54,1.08-1.53,2.58c0.01,1.42,0.61,2.39,1.6,2.6c0.89,0.19,1.47-0.1,2.38-1.21c0.29,0.14,0.6,0.28,0.9,0.43
		c0.28,0.14,0.55,0.29,0.82,0.43c-0.72,1.74-2.76,2.74-4.78,2.38c-2.16-0.39-3.5-1.92-3.62-4.15c-0.14-2.56,1-4.44,3.06-5.04
		C1880.63,1473.62,1882.78,1474.41,1883.83,1476.31z"/>
</g>
<g>
	<circle class="st14" cx="532.99" cy="620.17" r="7"/>
	<text transform="matrix(1 -8.890000e-03 8.890000e-03 1 528.5687 622.8304)" class="st11 st12 st13">PP</text>
</g>
<g>
	<circle class="st26" cx="546.13" cy="653.79" r="7"/>
	<g>
		<text transform="matrix(1 0 0 1 541.5554 656.4559)" class="st11 st12 st13">CD</text>
	</g>
</g>
<g>
	<circle class="st32" cx="536.53" cy="638.11" r="7"/>
	<text transform="matrix(0.9991 0.0435 -0.0435 0.9991 531.2899 640.6869)" class="st11 st12 st13">MR</text>
</g>
</svg>
