<?xml version="1.0" encoding="utf-8"?>
<!-- Generator: Adobe Illustrator 24.0.2, SVG Export Plug-In . SVG Version: 6.00 Build 0)  -->
<svg version="1.1" id="Layer_1" xmlns="http://www.w3.org/2000/svg" xmlns:xlink="http://www.w3.org/1999/xlink" x="0px" y="0px"
	 viewBox="0 0 880 778.33" style="enable-background:new 0 0 880 778.33;" xml:space="preserve">
<style type="text/css">
	.st0{fill:#2C374B;}
	.st1{fill:#4466AB;}
	.st2{fill:#FFFFFF;}
	.st3{fill:#E8A326;}
	.st4{fill:#4366AA;}
	.st5{fill:#202D3D;}
	.st6{fill:#696F7E;}
	.st7{fill:#ADB5C6;}
	.st8{fill:#F3F1F1;}
	.st9{fill:#6C89C2;}
	.st10{fill:#2B364B;}
	.st11{fill:#45506A;}
	.st12{font-family:'Roboto-Bold';}
	.st13{font-size:13.0603px;}
	.st14{font-family:'Roboto-Regular';}
	.st15{font-size:10.2617px;}
	.st16{fill:#4F8896;}
	.st17{fill:#DA5113;}
</style>
<rect id="XMLID_31_" x="55.4" y="45.94" class="st0" width="268.04" height="228.11"/>
<rect id="XMLID_38_" x="387.98" y="45.73" class="st0" width="437.07" height="125.37"/>
<g id="XMLID_101_">
	<g id="XMLID_165_">
		<path id="XMLID_164_" class="st0" d="M776.91,248.72v-5.43h6.9c1.03,0,1.87-0.08,2.53-0.25c0.65-0.17,1.17-0.44,1.55-0.81
			c0.38-0.38,0.64-0.86,0.79-1.44c0.15-0.59,0.23-1.3,0.23-2.13v-18.43h6.35v18.73c0,1.81-0.17,3.34-0.52,4.58
			c-0.35,1.24-0.94,2.24-1.78,3.01c-0.84,0.77-1.96,1.32-3.36,1.67c-1.41,0.35-3.17,0.52-5.29,0.52H776.91z"/>
		<path id="XMLID_170_" class="st0" d="M770.68,229.22c0-0.75-0.08-1.36-0.25-1.83c-0.17-0.47-0.44-0.83-0.83-1.08
			c-0.39-0.25-0.93-0.42-1.62-0.5c-0.69-0.08-1.55-0.12-2.58-0.12h-15.5v8.65h15.5c1.03,0,1.88-0.04,2.56-0.12
			c0.68-0.08,1.22-0.25,1.62-0.5c0.4-0.25,0.69-0.61,0.85-1.08c0.17-0.47,0.25-1.09,0.25-1.87V229.22z M766.49,248.72l-16.59-10.31
			v10.31h-6.28v-28.35h22.2c2,0,3.7,0.12,5.11,0.37c1.41,0.25,2.57,0.69,3.47,1.33c0.9,0.64,1.56,1.51,1.97,2.62
			c0.42,1.11,0.62,2.51,0.62,4.2v1.95c0,1.64-0.22,2.99-0.67,4.05c-0.44,1.07-1.13,1.91-2.06,2.54c-0.93,0.62-2.1,1.06-3.51,1.31
			c-1.41,0.25-3.09,0.37-5.03,0.37h-4.99l16.63,9.6H766.49z"/>
		<path id="XMLID_167_" class="st0" d="M736.15,229.76c0-1.52-0.33-2.56-0.98-3.12c-0.65-0.56-1.82-0.83-3.51-0.83h-16.21v9.68
			h16.29c1.66,0,2.81-0.26,3.45-0.77c0.64-0.51,0.96-1.52,0.96-3.01V229.76z M715.45,240.61v8.11h-6.32v-28.35h22.7
			c2.02,0,3.71,0.16,5.07,0.48c1.36,0.32,2.45,0.85,3.28,1.58c0.83,0.73,1.42,1.68,1.77,2.85c0.35,1.16,0.52,2.58,0.52,4.24v2.45
			c0,1.69-0.17,3.09-0.5,4.2c-0.33,1.11-0.91,2-1.72,2.66c-0.82,0.66-1.91,1.13-3.26,1.39c-1.36,0.26-3.08,0.4-5.15,0.4H715.45z"/>
		<path id="XMLID_159_" class="st0" d="M701.21,248.71v-18.79l-13.94,18.21c-0.64,0.81-1.58,1.21-2.8,1.21
			c-1.23,0-2.16-0.4-2.8-1.21l-13.9-18.21v18.79h-5.78v-26.58c0-0.89,0.33-1.55,0.98-1.97c0.66-0.42,1.47-0.63,2.45-0.63
			c0.75,0,1.35,0.1,1.8,0.31c0.45,0.21,0.85,0.55,1.21,1.02l16.11,21.39l16.24-21.39c0.36-0.47,0.75-0.82,1.15-1.02
			c0.4-0.21,0.97-0.31,1.69-0.31c0.98,0,1.79,0.21,2.45,0.63c0.66,0.42,0.98,1.07,0.98,1.97v26.58H701.21z"/>
	</g>
	<rect id="XMLID_319_" x="645.22" y="209.27" class="st0" width="1.17" height="50.48"/>
	<g id="XMLID_427_">
		<path id="XMLID_439_" class="st0" d="M440.12,210.61h10.09l23.32,29.98v-29.98h10.8v48.44h-9.31l-24.1-30.97v30.97h-10.81V210.61z
			"/>
		<path id="XMLID_437_" class="st0" d="M542.42,210.61h11.93l12.84,33.94l12.84-33.94h11.65l-19.86,48.16h-9.54L542.42,210.61z"/>
		<path id="XMLID_435_" class="st0" d="M631.13,258.76H619.2l-12.84-33.94l-12.84,33.94h-11.65l19.86-48.16h9.54L631.13,258.76z"/>
		<rect id="XMLID_434_" x="421.05" y="210.6" class="st0" width="10.95" height="48.44"/>
		<path id="XMLID_433_" class="st1" d="M522,234.56c0,2.77-2.25,5.01-5.01,5.01c-2.77,0-5.01-2.24-5.01-5.01
			c0-2.77,2.25-5.01,5.01-5.01C519.76,229.55,522,231.79,522,234.56z"/>
		<path id="XMLID_430_" class="st1" d="M516.99,207.69c-14.84,0-26.87,12.04-26.87,26.87c0,14.84,12.03,26.88,26.87,26.88
			c14.84,0,26.87-12.04,26.87-26.88C543.86,219.72,531.83,207.69,516.99,207.69z M516.99,251.24c-9.21,0-16.67-7.47-16.67-16.68
			c0-9.2,7.46-16.67,16.67-16.67c9.21,0,16.67,7.47,16.67,16.67C533.66,243.77,526.2,251.24,516.99,251.24z"/>
	</g>
</g>
<g>
	<g>
		<g id="XMLID_85_">
			<path id="XMLID_93_" class="st2" d="M776.91,126.3v-5.43h6.9c1.03,0,1.87-0.08,2.53-0.25c0.65-0.17,1.17-0.44,1.55-0.81
				c0.38-0.38,0.64-0.86,0.79-1.44c0.15-0.59,0.23-1.3,0.23-2.13V97.79h6.35v18.73c0,1.81-0.17,3.34-0.52,4.58
				c-0.35,1.24-0.94,2.24-1.78,3.01c-0.84,0.77-1.96,1.32-3.36,1.67c-1.41,0.35-3.17,0.52-5.29,0.52H776.91z"/>
			<path id="XMLID_90_" class="st2" d="M770.68,106.81c0-0.75-0.08-1.36-0.25-1.83c-0.17-0.47-0.44-0.83-0.83-1.08
				c-0.39-0.25-0.93-0.42-1.62-0.5c-0.69-0.08-1.55-0.12-2.58-0.12h-15.5v8.65h15.5c1.03,0,1.88-0.04,2.56-0.12
				c0.68-0.08,1.22-0.25,1.62-0.5c0.4-0.25,0.69-0.61,0.85-1.08c0.17-0.47,0.25-1.09,0.25-1.87V106.81z M766.49,126.3l-16.59-10.31
				v10.31h-6.28V97.95h22.2c2,0,3.7,0.12,5.11,0.37c1.41,0.25,2.57,0.69,3.47,1.33c0.9,0.64,1.56,1.51,1.97,2.62
				c0.42,1.11,0.62,2.51,0.62,4.2v1.95c0,1.64-0.22,2.99-0.67,4.05c-0.44,1.07-1.13,1.91-2.06,2.54c-0.93,0.62-2.1,1.06-3.51,1.31
				c-1.41,0.25-3.09,0.37-5.03,0.37h-4.99l16.63,9.6H766.49z"/>
			<path id="XMLID_87_" class="st2" d="M736.15,107.35c0-1.52-0.33-2.56-0.98-3.12c-0.65-0.56-1.82-0.83-3.51-0.83h-16.21v9.68
				h16.29c1.66,0,2.81-0.26,3.45-0.77c0.64-0.51,0.96-1.52,0.96-3.01V107.35z M715.45,118.2v8.11h-6.32V97.95h22.7
				c2.02,0,3.71,0.16,5.07,0.48c1.36,0.32,2.45,0.85,3.28,1.58c0.83,0.73,1.42,1.68,1.77,2.85c0.35,1.16,0.52,2.58,0.52,4.24v2.45
				c0,1.69-0.17,3.09-0.5,4.2c-0.33,1.11-0.91,2-1.72,2.66c-0.82,0.66-1.91,1.13-3.26,1.39c-1.36,0.26-3.08,0.4-5.15,0.4H715.45z"/>
			<path id="XMLID_86_" class="st2" d="M701.21,126.3v-18.79l-13.94,18.21c-0.64,0.81-1.58,1.21-2.8,1.21c-1.23,0-2.16-0.4-2.8-1.21
				l-13.9-18.21v18.79h-5.78V99.72c0-0.89,0.33-1.55,0.98-1.97c0.66-0.42,1.47-0.63,2.45-0.63c0.75,0,1.35,0.1,1.8,0.31
				c0.45,0.21,0.85,0.55,1.21,1.02l16.11,21.39l16.24-21.39c0.36-0.47,0.75-0.82,1.15-1.02c0.4-0.21,0.97-0.31,1.69-0.31
				c0.98,0,1.79,0.21,2.45,0.63c0.66,0.42,0.98,1.07,0.98,1.97v26.58H701.21z"/>
		</g>
		<rect id="XMLID_84_" x="645.22" y="86.85" class="st2" width="1.17" height="50.48"/>
		<path id="XMLID_82_" class="st2" d="M440.12,88.19h10.09l23.32,29.98V88.19h10.8v48.44h-9.31l-24.1-30.97v30.97h-10.81V88.19z"/>
		<path id="XMLID_80_" class="st2" d="M542.42,88.19h11.93l12.84,33.94l12.84-33.94h11.65l-19.86,48.16h-9.54L542.42,88.19z"/>
		<path id="XMLID_78_" class="st2" d="M631.13,136.35H619.2l-12.84-33.94l-12.84,33.94h-11.65l19.86-48.16h9.54L631.13,136.35z"/>
		<rect id="XMLID_77_" x="421.05" y="88.19" class="st2" width="10.95" height="48.44"/>
		<path id="XMLID_76_" class="st3" d="M522,112.14c0,2.77-2.25,5.01-5.01,5.01c-2.77,0-5.01-2.24-5.01-5.01
			c0-2.77,2.25-5.01,5.01-5.01C519.76,107.14,522,109.38,522,112.14z"/>
		<path id="XMLID_69_" class="st3" d="M516.99,85.27c-14.84,0-26.87,12.04-26.87,26.87c0,14.84,12.03,26.88,26.87,26.88
			c14.84,0,26.87-12.04,26.87-26.88C543.86,97.31,531.83,85.27,516.99,85.27z M516.99,128.82c-9.21,0-16.67-7.47-16.67-16.68
			c0-9.2,7.46-16.67,16.67-16.67c9.21,0,16.67,7.47,16.67,16.67C533.66,121.35,526.2,128.82,516.99,128.82z"/>
	</g>
</g>
<g id="XMLID_4_">
	<g id="XMLID_270_">
		<path id="XMLID_278_" class="st0" d="M241.46,459.19v-5.71h7.25c1.08,0,1.97-0.09,2.66-0.26c0.69-0.18,1.23-0.46,1.63-0.86
			c0.39-0.4,0.67-0.9,0.83-1.52c0.16-0.62,0.24-1.36,0.24-2.24v-19.37h6.68v19.68c0,1.9-0.18,3.51-0.55,4.81
			c-0.37,1.3-0.99,2.36-1.87,3.16c-0.88,0.81-2.06,1.39-3.54,1.76c-1.48,0.37-3.33,0.55-5.56,0.55H241.46z"/>
		<path id="XMLID_275_" class="st0" d="M234.92,438.7c0-0.79-0.09-1.43-0.26-1.92c-0.17-0.49-0.47-0.87-0.87-1.14
			c-0.41-0.26-0.98-0.44-1.7-0.52c-0.73-0.09-1.63-0.13-2.71-0.13h-16.29v9.09h16.29c1.08,0,1.97-0.04,2.69-0.13
			c0.71-0.09,1.28-0.26,1.7-0.52c0.42-0.26,0.72-0.64,0.89-1.14c0.17-0.5,0.26-1.15,0.26-1.97V438.7z M230.51,459.19l-17.43-10.83
			v10.83h-6.6V429.4h23.33c2.1,0,3.89,0.13,5.37,0.39c1.49,0.26,2.7,0.73,3.65,1.4c0.95,0.67,1.64,1.59,2.08,2.75
			c0.44,1.16,0.66,2.64,0.66,4.41v2.05c0,1.72-0.23,3.14-0.7,4.26c-0.47,1.12-1.19,2.01-2.16,2.66c-0.97,0.66-2.21,1.11-3.69,1.38
			c-1.49,0.26-3.25,0.39-5.29,0.39h-5.24l17.47,10.09H230.51z"/>
		<path id="XMLID_272_" class="st0" d="M198.63,439.27c0-1.6-0.34-2.69-1.03-3.28c-0.68-0.58-1.91-0.87-3.69-0.87h-17.04v10.18H194
			c1.75,0,2.96-0.27,3.63-0.81c0.67-0.54,1-1.59,1-3.17V439.27z M176.87,450.67v8.52h-6.64V429.4h23.85c2.13,0,3.9,0.17,5.33,0.5
			c1.43,0.34,2.58,0.89,3.45,1.66c0.87,0.77,1.49,1.77,1.86,2.99c0.36,1.22,0.55,2.71,0.55,4.46v2.58c0,1.78-0.17,3.25-0.52,4.41
			c-0.35,1.16-0.95,2.1-1.81,2.8c-0.86,0.7-2,1.19-3.43,1.46c-1.43,0.28-3.23,0.42-5.42,0.42H176.87z"/>
		<path id="XMLID_271_" class="st0" d="M161.9,459.18v-19.75l-14.65,19.14c-0.67,0.85-1.66,1.28-2.95,1.28
			c-1.29,0-2.27-0.43-2.95-1.28l-14.6-19.14v19.75h-6.07v-27.93c0-0.94,0.34-1.63,1.03-2.07c0.69-0.44,1.55-0.66,2.57-0.66
			c0.79,0,1.42,0.11,1.89,0.33c0.47,0.22,0.89,0.58,1.28,1.08l16.94,22.48l17.07-22.48c0.38-0.5,0.78-0.86,1.21-1.08
			c0.43-0.22,1.02-0.33,1.78-0.33c1.03,0,1.88,0.22,2.57,0.66c0.69,0.44,1.03,1.13,1.03,2.07v27.93H161.9z"/>
	</g>
	<rect id="XMLID_318_" x="88.75" y="411.39" class="st0" width="203.86" height="1.25"/>
	<g id="XMLID_102_">
		<path id="XMLID_104_" class="st4" d="M186.72,372.86c0,2.69-2.18,4.86-4.86,4.86c-2.68,0-4.86-2.17-4.86-4.86
			c0-2.68,2.18-4.86,4.86-4.86C184.54,368,186.72,370.18,186.72,372.86z"/>
		<path id="XMLID_131_" class="st0" d="M107.28,349.62h9.79l22.62,29.09v-29.09h10.48v47h-9.04l-23.38-30.05v30.05h-10.48V349.62z"
			/>
		<path id="XMLID_129_" class="st0" d="M206.53,349.62h11.57l12.46,32.93l12.46-32.93h11.3l-19.27,46.72h-9.26L206.53,349.62z"/>
		<path id="XMLID_127_" class="st0" d="M292.61,396.34h-11.57l-12.46-32.93l-12.46,32.93h-11.3l19.27-46.72h9.26L292.61,396.34z"/>
		<rect id="XMLID_124_" x="88.77" y="349.62" class="st0" width="10.62" height="47"/>
		<path id="XMLID_120_" class="st4" d="M181.86,346.79c-14.4,0-26.07,11.68-26.07,26.07c0,14.4,11.67,26.08,26.07,26.08
			c14.4,0,26.07-11.68,26.07-26.08C207.93,358.46,196.26,346.79,181.86,346.79z M181.86,389.04c-8.94,0-16.18-7.25-16.18-16.18
			c0-8.93,7.24-16.18,16.18-16.18s16.18,7.25,16.18,16.18C198.04,381.8,190.8,389.04,181.86,389.04z"/>
	</g>
</g>
<g id="XMLID_1_">
	<g id="XMLID_18_">
		<path id="XMLID_26_" class="st2" d="M240.46,216.19v-5.71h7.25c1.08,0,1.97-0.09,2.66-0.26c0.69-0.18,1.23-0.46,1.63-0.86
			c0.39-0.4,0.67-0.9,0.83-1.52c0.16-0.62,0.24-1.36,0.24-2.24v-19.37h6.68v19.68c0,1.9-0.18,3.51-0.55,4.81
			c-0.37,1.3-0.99,2.36-1.87,3.16c-0.88,0.81-2.06,1.39-3.54,1.76c-1.48,0.37-3.33,0.55-5.56,0.55H240.46z"/>
		<path id="XMLID_23_" class="st2" d="M233.92,195.7c0-0.79-0.09-1.43-0.26-1.92c-0.17-0.49-0.47-0.87-0.87-1.14
			c-0.41-0.26-0.98-0.44-1.7-0.52c-0.73-0.09-1.63-0.13-2.71-0.13h-16.29v9.09h16.29c1.08,0,1.97-0.04,2.69-0.13
			c0.71-0.09,1.28-0.26,1.7-0.52c0.42-0.26,0.72-0.64,0.89-1.14c0.17-0.5,0.26-1.15,0.26-1.97V195.7z M229.51,216.19l-17.43-10.83
			v10.83h-6.6V186.4h23.33c2.1,0,3.89,0.13,5.37,0.39c1.49,0.26,2.7,0.73,3.65,1.4c0.95,0.67,1.64,1.59,2.08,2.75
			c0.44,1.16,0.66,2.64,0.66,4.41v2.05c0,1.72-0.23,3.14-0.7,4.26c-0.47,1.12-1.19,2.01-2.16,2.66c-0.97,0.66-2.21,1.11-3.69,1.38
			c-1.49,0.26-3.25,0.39-5.29,0.39h-5.24l17.47,10.09H229.51z"/>
		<path id="XMLID_20_" class="st2" d="M197.63,196.27c0-1.6-0.34-2.69-1.03-3.28c-0.68-0.58-1.91-0.87-3.69-0.87h-17.04v10.18H193
			c1.75,0,2.96-0.27,3.63-0.81c0.67-0.54,1-1.59,1-3.17V196.27z M175.87,207.67v8.52h-6.64V186.4h23.85c2.13,0,3.9,0.17,5.33,0.5
			c1.43,0.34,2.58,0.89,3.45,1.66c0.87,0.77,1.49,1.77,1.86,2.99c0.36,1.22,0.55,2.71,0.55,4.46v2.58c0,1.78-0.17,3.25-0.52,4.41
			c-0.35,1.16-0.95,2.1-1.81,2.8c-0.86,0.7-2,1.19-3.43,1.46c-1.43,0.28-3.23,0.42-5.42,0.42H175.87z"/>
		<path id="XMLID_19_" class="st2" d="M160.9,216.18v-19.75l-14.65,19.14c-0.67,0.85-1.66,1.28-2.95,1.28
			c-1.29,0-2.27-0.43-2.95-1.28l-14.6-19.14v19.75h-6.07v-27.93c0-0.94,0.34-1.63,1.03-2.07c0.69-0.44,1.55-0.66,2.57-0.66
			c0.79,0,1.42,0.11,1.89,0.33c0.47,0.22,0.89,0.58,1.28,1.08l16.94,22.48l17.07-22.48c0.38-0.5,0.78-0.86,1.21-1.08
			c0.43-0.22,1.02-0.33,1.78-0.33c1.03,0,1.88,0.22,2.57,0.66c0.69,0.44,1.03,1.13,1.03,2.07v27.93H160.9z"/>
	</g>
	<rect id="XMLID_17_" x="87.75" y="168.39" class="st2" width="203.86" height="1.25"/>
	<g id="XMLID_5_">
		<path id="XMLID_16_" class="st3" d="M185.72,129.86c0,2.69-2.18,4.86-4.86,4.86c-2.68,0-4.86-2.17-4.86-4.86
			c0-2.68,2.18-4.86,4.86-4.86C183.54,125,185.72,127.18,185.72,129.86z"/>
		<path id="XMLID_14_" class="st2" d="M106.28,106.62h9.79l22.62,29.09v-29.09h10.48v47h-9.04l-23.38-30.05v30.05h-10.48V106.62z"/>
		<path id="XMLID_12_" class="st2" d="M205.53,106.62h11.57l12.46,32.93l12.46-32.93h11.3l-19.27,46.72h-9.26L205.53,106.62z"/>
		<path id="XMLID_10_" class="st2" d="M291.61,153.34h-11.57l-12.46-32.93l-12.46,32.93h-11.3l19.27-46.72h9.26L291.61,153.34z"/>
		<rect id="XMLID_9_" x="87.77" y="106.62" class="st2" width="10.62" height="47"/>
		<path id="XMLID_6_" class="st3" d="M180.86,103.79c-14.4,0-26.07,11.68-26.07,26.07c0,14.4,11.67,26.08,26.07,26.08
			c14.4,0,26.07-11.68,26.07-26.08C206.93,115.46,195.26,103.79,180.86,103.79z M180.86,146.04c-8.94,0-16.18-7.25-16.18-16.18
			c0-8.93,7.24-16.18,16.18-16.18s16.18,7.25,16.18,16.18C197.04,138.8,189.8,146.04,180.86,146.04z"/>
	</g>
</g>
<rect id="XMLID_288_" x="501.15" y="311" class="st5" width="109.15" height="90.96"/>
<rect id="XMLID_287_" x="501.15" y="414.28" class="st4" width="109.15" height="90.96"/>
<rect id="XMLID_286_" x="501.15" y="516.9" class="st6" width="109.15" height="90.96"/>
<rect id="XMLID_285_" x="610.3" y="516.9" class="st7" width="109.15" height="90.96"/>
<rect id="XMLID_283_" x="719.45" y="516.9" class="st8" width="109.15" height="90.96"/>
<rect id="XMLID_280_" x="610.3" y="414.28" class="st9" width="109.15" height="90.96"/>
<rect id="XMLID_279_" x="610.3" y="311" class="st10" width="109.15" height="90.96"/>
<rect id="XMLID_269_" x="719.46" y="414.28" class="st3" width="109.15" height="90.96"/>
<rect id="XMLID_158_" x="719.45" y="311" class="st11" width="109.15" height="90.96"/>
<text id="XMLID_157_" transform="matrix(1 0 0 1 509.079 364.9385)" class="st2 st12 st13">#11283a</text>
<text id="XMLID_156_" transform="matrix(1 0 0 1 509.079 381.916)" class="st2 st14 st15">R18 G41 B59</text>
<text id="XMLID_155_" transform="matrix(1 0 0 1 509.079 467.918)" class="st2 st12 st13">#2a66b0</text>
<text id="XMLID_154_" transform="matrix(1 0 0 1 509.079 484.8965)" class="st2 st14 st15">R42 G102 B176</text>
<text id="XMLID_153_" transform="matrix(1 0 0 1 509.079 572.0605)" class="st2 st12 st13">#677080</text>
<text id="XMLID_152_" transform="matrix(1 0 0 1 509.079 589.0391)" class="st2 st14 st15">R103 G112 B128</text>
<text id="XMLID_151_" transform="matrix(1 0 0 1 618.4579 364.9385)" class="st2 st12 st13">#22344a</text>
<text id="XMLID_150_" transform="matrix(1 0 0 1 618.4579 381.916)" class="st2 st14 st15">R34 G52 B74</text>
<text id="XMLID_147_" transform="matrix(1 0 0 1 618.4579 572.0605)" class="st2 st12 st13">#adb5c6</text>
<text id="XMLID_146_" transform="matrix(1 0 0 1 618.4579 589.0391)" class="st2 st14 st15">R173 G181 B198</text>
<rect id="XMLID_73_" x="501.15" y="628.9" class="st16" width="109.15" height="90.96"/>
<rect id="XMLID_72_" x="610.3" y="628.9" class="st17" width="109.15" height="90.96"/>
<text id="XMLID_71_" transform="matrix(1 0 0 1 509.079 684.0605)" class="st2 st12 st13">#4f8896</text>
<text id="XMLID_70_" transform="matrix(1 0 0 1 509.079 701.0391)" class="st2 st14 st15">R79 G136 B150</text>
<text id="XMLID_28_" transform="matrix(1 0 0 1 618.4579 684.0605)" class="st2 st12 st13">#da5113</text>
<text id="XMLID_27_" transform="matrix(1 0 0 1 618.4579 701.0391)" class="st2 st14 st15">R218 G81 B19</text>
<text id="XMLID_145_" transform="matrix(1 0 0 1 727.2557 364.9385)" class="st2 st12 st13">#3c506b</text>
<text id="XMLID_144_" transform="matrix(1 0 0 1 727.2557 381.916)" class="st2 st14 st15">R60 G80 B107</text>
<text id="XMLID_141_" transform="matrix(1 0 0 1 727.5513 468.2222)" class="st2 st12 st13">#ffa600</text>
<text id="XMLID_140_" transform="matrix(1 0 0 1 727.5513 485.1997)" class="st2 st14 st15">R255 G166 B0</text>
<text id="XMLID_139_" transform="matrix(1 0 0 1 618.3989 467.918)" class="st2 st12 st13">#5d8bc8</text>
<text id="XMLID_138_" transform="matrix(1 0 0 1 618.3989 484.8965)" class="st2 st14 st15">R93 G139 B200</text>
<text id="XMLID_137_" transform="matrix(1 0 0 1 727.5494 572.0605)" class="st6 st12 st13">#f3f1f1</text>
<text id="XMLID_136_" transform="matrix(1 0 0 1 727.5494 589.0391)" class="st6 st14 st15">R243 G241 B241</text>
</svg>
