<?xml version="1.0" encoding="utf-8"?>
<!-- Generator: Adobe Illustrator 24.1.2, SVG Export Plug-In . SVG Version: 6.00 Build 0)  -->
<svg version="1.1" id="Layer_1" xmlns="http://www.w3.org/2000/svg" xmlns:xlink="http://www.w3.org/1999/xlink" x="0px" y="0px"
	 viewBox="0 0 880 649.3" style="enable-background:new 0 0 880 649.3;" xml:space="preserve">
<style type="text/css">
	.st0{fill:#22344A;}
	.st1{fill:#2A66AE;}
	.st2{fill:#FFFFFF;}
	.st3{fill:#FDA400;}
	.st4{fill:#2866AD;}
	.st5{fill:#11293B;}
	.st6{font-family:'Roboto-Bold';}
	.st7{font-size:12.1166px;}
	.st8{font-family:'Roboto-Regular';}
	.st9{font-size:9.5202px;}
	.st10{fill:#677080;}
	.st11{fill:#20334A;}
	.st12{fill:#AAB5C7;}
	.st13{fill:#3E4F6B;}
	.st14{fill:#5D89C4;}
	.st15{fill:#F3F0F0;}
</style>
<rect id="XMLID_31_" x="55.4" y="45.9" class="st0" width="268" height="228.1"/>
<rect id="XMLID_38_" x="388" y="45.7" class="st0" width="437.1" height="125.4"/>
<g id="XMLID_101_">
	<g id="XMLID_165_">
		<path id="XMLID_164_" class="st0" d="M776.9,248.7v-5.4h6.9c1,0,1.9-0.1,2.5-0.3c0.7-0.2,1.2-0.4,1.5-0.8c0.4-0.4,0.6-0.9,0.8-1.4
			c0.2-0.6,0.2-1.3,0.2-2.1v-18.4h6.4v18.7c0,1.8-0.2,3.3-0.5,4.6c-0.3,1.2-0.9,2.2-1.8,3c-0.8,0.8-2,1.3-3.4,1.7
			c-1.4,0.3-3.2,0.5-5.3,0.5H776.9z"/>
		<path id="XMLID_170_" class="st0" d="M770.7,229.2c0-0.7-0.1-1.4-0.2-1.8c-0.2-0.5-0.4-0.8-0.8-1.1c-0.4-0.2-0.9-0.4-1.6-0.5
			c-0.7-0.1-1.6-0.1-2.6-0.1h-15.5v8.6h15.5c1,0,1.9,0,2.6-0.1c0.7-0.1,1.2-0.2,1.6-0.5c0.4-0.2,0.7-0.6,0.9-1.1
			c0.2-0.5,0.2-1.1,0.2-1.9V229.2z M766.5,248.7l-16.6-10.3v10.3h-6.3v-28.3h22.2c2,0,3.7,0.1,5.1,0.4c1.4,0.2,2.6,0.7,3.5,1.3
			c0.9,0.6,1.6,1.5,2,2.6c0.4,1.1,0.6,2.5,0.6,4.2v2c0,1.6-0.2,3-0.7,4.1c-0.4,1.1-1.1,1.9-2.1,2.5c-0.9,0.6-2.1,1.1-3.5,1.3
			c-1.4,0.2-3.1,0.4-5,0.4h-5l16.6,9.6H766.5z"/>
		<path id="XMLID_167_" class="st0" d="M736.2,229.8c0-1.5-0.3-2.6-1-3.1c-0.7-0.6-1.8-0.8-3.5-0.8h-16.2v9.7h16.3
			c1.7,0,2.8-0.3,3.4-0.8c0.6-0.5,1-1.5,1-3V229.8z M715.5,240.6v8.1h-6.3v-28.3h22.7c2,0,3.7,0.2,5.1,0.5c1.4,0.3,2.5,0.8,3.3,1.6
			c0.8,0.7,1.4,1.7,1.8,2.8c0.3,1.2,0.5,2.6,0.5,4.2v2.5c0,1.7-0.2,3.1-0.5,4.2c-0.3,1.1-0.9,2-1.7,2.7c-0.8,0.7-1.9,1.1-3.3,1.4
			c-1.4,0.3-3.1,0.4-5.2,0.4H715.5z"/>
		<path id="XMLID_159_" class="st0" d="M701.2,248.7v-18.8l-13.9,18.2c-0.6,0.8-1.6,1.2-2.8,1.2c-1.2,0-2.2-0.4-2.8-1.2l-13.9-18.2
			v18.8H662v-26.6c0-0.9,0.3-1.5,1-2c0.7-0.4,1.5-0.6,2.4-0.6c0.8,0,1.4,0.1,1.8,0.3c0.4,0.2,0.9,0.6,1.2,1l16.1,21.4l16.2-21.4
			c0.4-0.5,0.7-0.8,1.2-1c0.4-0.2,1-0.3,1.7-0.3c1,0,1.8,0.2,2.4,0.6c0.7,0.4,1,1.1,1,2v26.6H701.2z"/>
	</g>
	<rect id="XMLID_319_" x="645.2" y="209.3" class="st0" width="1.2" height="50.5"/>
	<g id="XMLID_427_">
		<path id="XMLID_439_" class="st0" d="M440.1,210.6h10.1l23.3,30v-30h10.8V259H475l-24.1-31v31h-10.8V210.6z"/>
		<path id="XMLID_437_" class="st0" d="M542.4,210.6h11.9l12.8,33.9l12.8-33.9h11.6l-19.9,48.2h-9.5L542.4,210.6z"/>
		<path id="XMLID_435_" class="st0" d="M631.1,258.8h-11.9l-12.8-33.9l-12.8,33.9h-11.6l19.9-48.2h9.5L631.1,258.8z"/>
		<rect id="XMLID_434_" x="421" y="210.6" class="st0" width="10.9" height="48.4"/>
		<path id="XMLID_433_" class="st1" d="M522,234.6c0,2.8-2.2,5-5,5c-2.8,0-5-2.2-5-5c0-2.8,2.2-5,5-5
			C519.8,229.6,522,231.8,522,234.6z"/>
		<path id="XMLID_430_" class="st1" d="M517,207.7c-14.8,0-26.9,12-26.9,26.9c0,14.8,12,26.9,26.9,26.9c14.8,0,26.9-12,26.9-26.9
			C543.9,219.7,531.8,207.7,517,207.7z M517,251.2c-9.2,0-16.7-7.5-16.7-16.7c0-9.2,7.5-16.7,16.7-16.7c9.2,0,16.7,7.5,16.7,16.7
			C533.7,243.8,526.2,251.2,517,251.2z"/>
	</g>
</g>
<g>
	<g>
		<g id="XMLID_85_">
			<path id="XMLID_93_" class="st2" d="M776.9,126.3v-5.4h6.9c1,0,1.9-0.1,2.5-0.3c0.7-0.2,1.2-0.4,1.5-0.8c0.4-0.4,0.6-0.9,0.8-1.4
				c0.2-0.6,0.2-1.3,0.2-2.1V97.8h6.4v18.7c0,1.8-0.2,3.3-0.5,4.6c-0.3,1.2-0.9,2.2-1.8,3c-0.8,0.8-2,1.3-3.4,1.7
				c-1.4,0.3-3.2,0.5-5.3,0.5H776.9z"/>
			<path id="XMLID_90_" class="st2" d="M770.7,106.8c0-0.7-0.1-1.4-0.2-1.8c-0.2-0.5-0.4-0.8-0.8-1.1c-0.4-0.2-0.9-0.4-1.6-0.5
				c-0.7-0.1-1.6-0.1-2.6-0.1h-15.5v8.6h15.5c1,0,1.9,0,2.6-0.1c0.7-0.1,1.2-0.2,1.6-0.5c0.4-0.2,0.7-0.6,0.9-1.1
				c0.2-0.5,0.2-1.1,0.2-1.9V106.8z M766.5,126.3L749.9,116v10.3h-6.3V98h22.2c2,0,3.7,0.1,5.1,0.4c1.4,0.2,2.6,0.7,3.5,1.3
				c0.9,0.6,1.6,1.5,2,2.6c0.4,1.1,0.6,2.5,0.6,4.2v2c0,1.6-0.2,3-0.7,4.1c-0.4,1.1-1.1,1.9-2.1,2.5c-0.9,0.6-2.1,1.1-3.5,1.3
				c-1.4,0.2-3.1,0.4-5,0.4h-5l16.6,9.6H766.5z"/>
			<path id="XMLID_87_" class="st2" d="M736.2,107.3c0-1.5-0.3-2.6-1-3.1c-0.7-0.6-1.8-0.8-3.5-0.8h-16.2v9.7h16.3
				c1.7,0,2.8-0.3,3.4-0.8c0.6-0.5,1-1.5,1-3V107.3z M715.5,118.2v8.1h-6.3V98h22.7c2,0,3.7,0.2,5.1,0.5c1.4,0.3,2.5,0.8,3.3,1.6
				c0.8,0.7,1.4,1.7,1.8,2.8c0.3,1.2,0.5,2.6,0.5,4.2v2.5c0,1.7-0.2,3.1-0.5,4.2c-0.3,1.1-0.9,2-1.7,2.7c-0.8,0.7-1.9,1.1-3.3,1.4
				c-1.4,0.3-3.1,0.4-5.2,0.4H715.5z"/>
			<path id="XMLID_86_" class="st2" d="M701.2,126.3v-18.8l-13.9,18.2c-0.6,0.8-1.6,1.2-2.8,1.2c-1.2,0-2.2-0.4-2.8-1.2l-13.9-18.2
				v18.8H662V99.7c0-0.9,0.3-1.5,1-2c0.7-0.4,1.5-0.6,2.4-0.6c0.8,0,1.4,0.1,1.8,0.3c0.4,0.2,0.9,0.6,1.2,1l16.1,21.4l16.2-21.4
				c0.4-0.5,0.7-0.8,1.2-1c0.4-0.2,1-0.3,1.7-0.3c1,0,1.8,0.2,2.4,0.6c0.7,0.4,1,1.1,1,2v26.6H701.2z"/>
		</g>
		<rect id="XMLID_84_" x="645.2" y="86.9" class="st2" width="1.2" height="50.5"/>
		<path id="XMLID_82_" class="st2" d="M440.1,88.2h10.1l23.3,30v-30h10.8v48.4H475l-24.1-31v31h-10.8V88.2z"/>
		<path id="XMLID_80_" class="st2" d="M542.4,88.2h11.9l12.8,33.9L580,88.2h11.6l-19.9,48.2h-9.5L542.4,88.2z"/>
		<path id="XMLID_78_" class="st2" d="M631.1,136.3h-11.9l-12.8-33.9l-12.8,33.9h-11.6l19.9-48.2h9.5L631.1,136.3z"/>
		<rect id="XMLID_77_" x="421" y="88.2" class="st2" width="10.9" height="48.4"/>
		<path id="XMLID_76_" class="st3" d="M522,112.1c0,2.8-2.2,5-5,5c-2.8,0-5-2.2-5-5c0-2.8,2.2-5,5-5
			C519.8,107.1,522,109.4,522,112.1z"/>
		<path id="XMLID_69_" class="st3" d="M517,85.3c-14.8,0-26.9,12-26.9,26.9c0,14.8,12,26.9,26.9,26.9c14.8,0,26.9-12,26.9-26.9
			C543.9,97.3,531.8,85.3,517,85.3z M517,128.8c-9.2,0-16.7-7.5-16.7-16.7c0-9.2,7.5-16.7,16.7-16.7c9.2,0,16.7,7.5,16.7,16.7
			C533.7,121.4,526.2,128.8,517,128.8z"/>
	</g>
</g>
<g id="XMLID_4_">
	<g id="XMLID_270_">
		<path id="XMLID_278_" class="st0" d="M241.5,459.2v-5.7h7.2c1.1,0,2-0.1,2.7-0.3c0.7-0.2,1.2-0.5,1.6-0.9c0.4-0.4,0.7-0.9,0.8-1.5
			c0.2-0.6,0.2-1.4,0.2-2.2v-19.4h6.7v19.7c0,1.9-0.2,3.5-0.5,4.8c-0.4,1.3-1,2.4-1.9,3.2c-0.9,0.8-2.1,1.4-3.5,1.8
			c-1.5,0.4-3.3,0.5-5.6,0.5H241.5z"/>
		<path id="XMLID_275_" class="st0" d="M234.9,438.7c0-0.8-0.1-1.4-0.3-1.9c-0.2-0.5-0.5-0.9-0.9-1.1c-0.4-0.3-1-0.4-1.7-0.5
			c-0.7-0.1-1.6-0.1-2.7-0.1h-16.3v9.1h16.3c1.1,0,2,0,2.7-0.1c0.7-0.1,1.3-0.3,1.7-0.5c0.4-0.3,0.7-0.6,0.9-1.1
			c0.2-0.5,0.3-1.2,0.3-2V438.7z M230.5,459.2l-17.4-10.8v10.8h-6.6v-29.8h23.3c2.1,0,3.9,0.1,5.4,0.4c1.5,0.3,2.7,0.7,3.6,1.4
			c0.9,0.7,1.6,1.6,2.1,2.8c0.4,1.2,0.7,2.6,0.7,4.4v2.1c0,1.7-0.2,3.1-0.7,4.3c-0.5,1.1-1.2,2-2.2,2.7c-1,0.7-2.2,1.1-3.7,1.4
			c-1.5,0.3-3.2,0.4-5.3,0.4h-5.2l17.5,10.1H230.5z"/>
		<path id="XMLID_272_" class="st0" d="M198.6,439.3c0-1.6-0.3-2.7-1-3.3c-0.7-0.6-1.9-0.9-3.7-0.9h-17v10.2H194
			c1.7,0,3-0.3,3.6-0.8c0.7-0.5,1-1.6,1-3.2V439.3z M176.9,450.7v8.5h-6.6v-29.8h23.9c2.1,0,3.9,0.2,5.3,0.5
			c1.4,0.3,2.6,0.9,3.5,1.7c0.9,0.8,1.5,1.8,1.9,3c0.4,1.2,0.5,2.7,0.5,4.5v2.6c0,1.8-0.2,3.2-0.5,4.4c-0.3,1.2-1,2.1-1.8,2.8
			c-0.9,0.7-2,1.2-3.4,1.5c-1.4,0.3-3.2,0.4-5.4,0.4H176.9z"/>
		<path id="XMLID_271_" class="st0" d="M161.9,459.2v-19.8l-14.6,19.1c-0.7,0.9-1.7,1.3-2.9,1.3c-1.3,0-2.3-0.4-2.9-1.3l-14.6-19.1
			v19.8h-6.1v-27.9c0-0.9,0.3-1.6,1-2.1c0.7-0.4,1.5-0.7,2.6-0.7c0.8,0,1.4,0.1,1.9,0.3c0.5,0.2,0.9,0.6,1.3,1.1l16.9,22.5
			l17.1-22.5c0.4-0.5,0.8-0.9,1.2-1.1c0.4-0.2,1-0.3,1.8-0.3c1,0,1.9,0.2,2.6,0.7c0.7,0.4,1,1.1,1,2.1v27.9H161.9z"/>
	</g>
	<rect id="XMLID_318_" x="88.7" y="411.4" class="st0" width="203.9" height="1.3"/>
	<g id="XMLID_102_">
		<path id="XMLID_104_" class="st4" d="M186.7,372.9c0,2.7-2.2,4.9-4.9,4.9c-2.7,0-4.9-2.2-4.9-4.9c0-2.7,2.2-4.9,4.9-4.9
			C184.5,368,186.7,370.2,186.7,372.9z"/>
		<path id="XMLID_131_" class="st0" d="M107.3,349.6h9.8l22.6,29.1v-29.1h10.5v47h-9l-23.4-30.1v30.1h-10.5V349.6z"/>
		<path id="XMLID_129_" class="st0" d="M206.5,349.6h11.6l12.5,32.9l12.5-32.9h11.3l-19.3,46.7h-9.3L206.5,349.6z"/>
		<path id="XMLID_127_" class="st0" d="M292.6,396.3H281l-12.5-32.9l-12.5,32.9h-11.3l19.3-46.7h9.3L292.6,396.3z"/>
		<rect id="XMLID_124_" x="88.8" y="349.6" class="st0" width="10.6" height="47"/>
		<path id="XMLID_120_" class="st4" d="M181.9,346.8c-14.4,0-26.1,11.7-26.1,26.1c0,14.4,11.7,26.1,26.1,26.1
			c14.4,0,26.1-11.7,26.1-26.1C207.9,358.5,196.3,346.8,181.9,346.8z M181.9,389c-8.9,0-16.2-7.2-16.2-16.2
			c0-8.9,7.2-16.2,16.2-16.2s16.2,7.2,16.2,16.2C198,381.8,190.8,389,181.9,389z"/>
	</g>
</g>
<g id="XMLID_1_">
	<g id="XMLID_18_">
		<path id="XMLID_26_" class="st2" d="M240.5,216.2v-5.7h7.2c1.1,0,2-0.1,2.7-0.3c0.7-0.2,1.2-0.5,1.6-0.9c0.4-0.4,0.7-0.9,0.8-1.5
			c0.2-0.6,0.2-1.4,0.2-2.2v-19.4h6.7v19.7c0,1.9-0.2,3.5-0.5,4.8c-0.4,1.3-1,2.4-1.9,3.2c-0.9,0.8-2.1,1.4-3.5,1.8
			c-1.5,0.4-3.3,0.5-5.6,0.5H240.5z"/>
		<path id="XMLID_23_" class="st2" d="M233.9,195.7c0-0.8-0.1-1.4-0.3-1.9c-0.2-0.5-0.5-0.9-0.9-1.1c-0.4-0.3-1-0.4-1.7-0.5
			c-0.7-0.1-1.6-0.1-2.7-0.1h-16.3v9.1h16.3c1.1,0,2,0,2.7-0.1c0.7-0.1,1.3-0.3,1.7-0.5c0.4-0.3,0.7-0.6,0.9-1.1
			c0.2-0.5,0.3-1.2,0.3-2V195.7z M229.5,216.2l-17.4-10.8v10.8h-6.6v-29.8h23.3c2.1,0,3.9,0.1,5.4,0.4c1.5,0.3,2.7,0.7,3.6,1.4
			c0.9,0.7,1.6,1.6,2.1,2.8c0.4,1.2,0.7,2.6,0.7,4.4v2.1c0,1.7-0.2,3.1-0.7,4.3c-0.5,1.1-1.2,2-2.2,2.7c-1,0.7-2.2,1.1-3.7,1.4
			c-1.5,0.3-3.2,0.4-5.3,0.4h-5.2l17.5,10.1H229.5z"/>
		<path id="XMLID_20_" class="st2" d="M197.6,196.3c0-1.6-0.3-2.7-1-3.3c-0.7-0.6-1.9-0.9-3.7-0.9h-17v10.2H193c1.7,0,3-0.3,3.6-0.8
			c0.7-0.5,1-1.6,1-3.2V196.3z M175.9,207.7v8.5h-6.6v-29.8h23.9c2.1,0,3.9,0.2,5.3,0.5c1.4,0.3,2.6,0.9,3.5,1.7
			c0.9,0.8,1.5,1.8,1.9,3c0.4,1.2,0.5,2.7,0.5,4.5v2.6c0,1.8-0.2,3.2-0.5,4.4c-0.3,1.2-1,2.1-1.8,2.8c-0.9,0.7-2,1.2-3.4,1.5
			c-1.4,0.3-3.2,0.4-5.4,0.4H175.9z"/>
		<path id="XMLID_19_" class="st2" d="M160.9,216.2v-19.8l-14.6,19.1c-0.7,0.9-1.7,1.3-2.9,1.3c-1.3,0-2.3-0.4-2.9-1.3l-14.6-19.1
			v19.8h-6.1v-27.9c0-0.9,0.3-1.6,1-2.1c0.7-0.4,1.5-0.7,2.6-0.7c0.8,0,1.4,0.1,1.9,0.3c0.5,0.2,0.9,0.6,1.3,1.1l16.9,22.5
			l17.1-22.5c0.4-0.5,0.8-0.9,1.2-1.1c0.4-0.2,1-0.3,1.8-0.3c1,0,1.9,0.2,2.6,0.7c0.7,0.4,1,1.1,1,2.1v27.9H160.9z"/>
	</g>
	<rect id="XMLID_17_" x="87.7" y="168.4" class="st2" width="203.9" height="1.3"/>
	<g id="XMLID_5_">
		<path id="XMLID_16_" class="st3" d="M185.7,129.9c0,2.7-2.2,4.9-4.9,4.9c-2.7,0-4.9-2.2-4.9-4.9c0-2.7,2.2-4.9,4.9-4.9
			C183.5,125,185.7,127.2,185.7,129.9z"/>
		<path id="XMLID_14_" class="st2" d="M106.3,106.6h9.8l22.6,29.1v-29.1h10.5v47h-9l-23.4-30.1v30.1h-10.5V106.6z"/>
		<path id="XMLID_12_" class="st2" d="M205.5,106.6h11.6l12.5,32.9l12.5-32.9h11.3l-19.3,46.7h-9.3L205.5,106.6z"/>
		<path id="XMLID_10_" class="st2" d="M291.6,153.3H280l-12.5-32.9l-12.5,32.9h-11.3l19.3-46.7h9.3L291.6,153.3z"/>
		<rect id="XMLID_9_" x="87.8" y="106.6" class="st2" width="10.6" height="47"/>
		<path id="XMLID_6_" class="st3" d="M180.9,103.8c-14.4,0-26.1,11.7-26.1,26.1c0,14.4,11.7,26.1,26.1,26.1
			c14.4,0,26.1-11.7,26.1-26.1C206.9,115.5,195.3,103.8,180.9,103.8z M180.9,146c-8.9,0-16.2-7.2-16.2-16.2
			c0-8.9,7.2-16.2,16.2-16.2s16.2,7.2,16.2,16.2C197,138.8,189.8,146,180.9,146z"/>
	</g>
</g>
<rect id="XMLID_288_" x="390.4" y="305" class="st5" width="84.4" height="84.4"/>
<text id="XMLID_157_" transform="matrix(1 0 0 1 397.7502 355.0332)" class="st2 st6 st7">#11283a</text>
<text id="XMLID_156_" transform="matrix(1 0 0 1 397.7502 370.7852)" class="st2 st8 st9">R18 G41 B59</text>
<rect id="XMLID_287_" x="389.7" y="403.3" class="st4" width="84.4" height="84.4"/>
<text id="XMLID_155_" transform="matrix(1 0 0 1 397.0978 453.0156)" class="st2 st6 st7">#2a66b0</text>
<text id="XMLID_154_" transform="matrix(1 0 0 1 397.0978 468.7656)" class="st2 st8 st9">R42 G102 B176</text>
<rect id="XMLID_286_" x="390.1" y="501.9" class="st10" width="84.4" height="84.4"/>
<text id="XMLID_153_" transform="matrix(1 0 0 1 397.4435 553.0742)" class="st2 st6 st7">#677080</text>
<text id="XMLID_152_" transform="matrix(1 0 0 1 397.4435 568.8262)" class="st2 st8 st9">R103 G112 B128</text>
<rect id="XMLID_279_" x="474.8" y="305" class="st11" width="84.4" height="84.4"/>
<text id="XMLID_151_" transform="matrix(1 0 0 1 482.3479 355.0332)" class="st2 st6 st7">#22344a</text>
<text id="XMLID_150_" transform="matrix(1 0 0 1 482.3479 370.7852)" class="st2 st8 st9">R34 G52 B74</text>
<rect id="XMLID_285_" x="474.5" y="501.9" class="st12" width="84.4" height="84.4"/>
<text id="XMLID_147_" transform="matrix(1 0 0 1 482.0392 553.0742)" class="st2 st6 st7">#adb5c6</text>
<text id="XMLID_146_" transform="matrix(1 0 0 1 482.0392 568.8262)" class="st2 st8 st9">R173 G181 B198</text>
<rect id="XMLID_158_" x="559.2" y="305" class="st13" width="84.4" height="84.4"/>
<text id="XMLID_145_" transform="matrix(1 0 0 1 566.4045 355.0332)" class="st2 st6 st7">#3c506b</text>
<text id="XMLID_144_" transform="matrix(1 0 0 1 566.4045 370.7852)" class="st2 st8 st9">R60 G80 B107</text>
<rect id="XMLID_269_" x="558.5" y="403.3" class="st3" width="84.4" height="84.4"/>
<text id="XMLID_141_" transform="matrix(1 0 0 1 566.0236 453.2969)" class="st2 st6 st7">#ffa600</text>
<text id="XMLID_140_" transform="matrix(1 0 0 1 566.0236 469.0488)" class="st2 st8 st9">R255 G166 B0</text>
<rect id="XMLID_280_" x="474.1" y="403.3" class="st14" width="84.4" height="84.4"/>
<text id="XMLID_139_" transform="matrix(1 0 0 1 481.6389 453.0156)" class="st2 st6 st7">#5d8bc8</text>
<text id="XMLID_138_" transform="matrix(1 0 0 1 481.6389 468.7656)" class="st2 st8 st9">R93 G139 B200</text>
<rect id="XMLID_283_" x="558.9" y="501.9" class="st15" width="84.4" height="84.4"/>
<text id="XMLID_137_" transform="matrix(1 0 0 1 566.3693 553.0742)" class="st10 st6 st7">#f3f1f1</text>
<text id="XMLID_136_" transform="matrix(1 0 0 1 566.3693 568.8262)" class="st10 st8 st9">R243 G241 B241</text>
</svg>
